solid OpenSCAD_Model
  facet normal 0.671559 0.740951 -0
    outer loop
      vertex 15.1321 15.1321 22
      vertex 13.576 16.5424 25
      vertex 15.1321 15.1321 25
    endloop
  endfacet
  facet normal 0.671559 0.740951 0
    outer loop
      vertex 13.576 16.5424 25
      vertex 15.1321 15.1321 22
      vertex 13.576 16.5424 22
    endloop
  endfacet
  facet normal -0.33689 0.941544 0
    outer loop
      vertex -6.21209 20.4785 22
      vertex -8.18942 19.771 25
      vertex -6.21209 20.4785 25
    endloop
  endfacet
  facet normal -0.33689 0.941544 0
    outer loop
      vertex -8.18942 19.771 25
      vertex -6.21209 20.4785 22
      vertex -8.18942 19.771 22
    endloop
  endfacet
  facet normal -0.903989 0.427555 0
    outer loop
      vertex -19.771 8.18942 22
      vertex -18.8731 10.0879 25
      vertex -18.8731 10.0879 22
    endloop
  endfacet
  facet normal -0.903989 0.427555 0
    outer loop
      vertex -18.8731 10.0879 25
      vertex -19.771 8.18942 22
      vertex -19.771 8.18942 25
    endloop
  endfacet
  facet normal 0.903989 -0.427555 0
    outer loop
      vertex 18.8731 -10.0879 25
      vertex 19.771 -8.18942 22
      vertex 19.771 -8.18942 25
    endloop
  endfacet
  facet normal 0.903989 -0.427555 0
    outer loop
      vertex 19.771 -8.18942 22
      vertex 18.8731 -10.0879 25
      vertex 18.8731 -10.0879 22
    endloop
  endfacet
  facet normal -0.427555 -0.903989 0
    outer loop
      vertex -10.0879 -18.8731 22
      vertex -8.18942 -19.771 25
      vertex -10.0879 -18.8731 25
    endloop
  endfacet
  facet normal -0.427555 -0.903989 -0
    outer loop
      vertex -8.18942 -19.771 25
      vertex -10.0879 -18.8731 22
      vertex -8.18942 -19.771 22
    endloop
  endfacet
  facet normal 0.941544 0.33689 0
    outer loop
      vertex 20.4785 6.21209 25
      vertex 19.771 8.18942 22
      vertex 19.771 8.18942 25
    endloop
  endfacet
  facet normal 0.941544 0.33689 0
    outer loop
      vertex 19.771 8.18942 22
      vertex 20.4785 6.21209 25
      vertex 20.4785 6.21209 22
    endloop
  endfacet
  facet normal 0.989177 0.14673 0
    outer loop
      vertex 21.297 2.09757 25
      vertex 20.9888 4.17493 22
      vertex 20.9888 4.17493 25
    endloop
  endfacet
  facet normal 0.989177 0.14673 0
    outer loop
      vertex 20.9888 4.17493 22
      vertex 21.297 2.09757 25
      vertex 21.297 2.09757 22
    endloop
  endfacet
  facet normal 0.903989 0.427555 0
    outer loop
      vertex 19.771 8.18942 25
      vertex 18.8731 10.0879 22
      vertex 18.8731 10.0879 25
    endloop
  endfacet
  facet normal 0.903989 0.427555 0
    outer loop
      vertex 18.8731 10.0879 22
      vertex 19.771 8.18942 25
      vertex 19.771 8.18942 22
    endloop
  endfacet
  facet normal 0.427555 0.903989 -0
    outer loop
      vertex 10.0879 18.8731 22
      vertex 8.18942 19.771 25
      vertex 10.0879 18.8731 25
    endloop
  endfacet
  facet normal 0.427555 0.903989 0
    outer loop
      vertex 8.18942 19.771 25
      vertex 10.0879 18.8731 22
      vertex 8.18942 19.771 22
    endloop
  endfacet
  facet normal 0.14673 0.989177 -0
    outer loop
      vertex 4.17493 20.9888 22
      vertex 2.09757 21.297 25
      vertex 4.17493 20.9888 25
    endloop
  endfacet
  facet normal 0.14673 0.989177 0
    outer loop
      vertex 2.09757 21.297 25
      vertex 4.17493 20.9888 22
      vertex 2.09757 21.297 22
    endloop
  endfacet
  facet normal -0.989177 0.14673 0
    outer loop
      vertex -21.297 2.09757 22
      vertex -20.9888 4.17493 25
      vertex -20.9888 4.17493 22
    endloop
  endfacet
  facet normal -0.989177 0.14673 0
    outer loop
      vertex -20.9888 4.17493 25
      vertex -21.297 2.09757 22
      vertex -21.297 2.09757 25
    endloop
  endfacet
  facet normal -0.740951 0.671559 0
    outer loop
      vertex -16.5424 13.576 22
      vertex -15.1321 15.1321 25
      vertex -15.1321 15.1321 22
    endloop
  endfacet
  facet normal -0.740951 0.671559 0
    outer loop
      vertex -15.1321 15.1321 25
      vertex -16.5424 13.576 22
      vertex -16.5424 13.576 25
    endloop
  endfacet
  facet normal -0.14673 0.989177 0
    outer loop
      vertex -2.09757 21.297 22
      vertex -4.17493 20.9888 25
      vertex -2.09757 21.297 25
    endloop
  endfacet
  facet normal -0.14673 0.989177 0
    outer loop
      vertex -4.17493 20.9888 25
      vertex -2.09757 21.297 22
      vertex -4.17493 20.9888 22
    endloop
  endfacet
  facet normal 0.989177 -0.14673 0
    outer loop
      vertex 20.9888 -4.17493 25
      vertex 21.297 -2.09757 22
      vertex 21.297 -2.09757 25
    endloop
  endfacet
  facet normal 0.989177 -0.14673 0
    outer loop
      vertex 21.297 -2.09757 22
      vertex 20.9888 -4.17493 25
      vertex 20.9888 -4.17493 22
    endloop
  endfacet
  facet normal 0.740951 -0.671559 0
    outer loop
      vertex 15.1321 -15.1321 25
      vertex 16.5424 -13.576 22
      vertex 16.5424 -13.576 25
    endloop
  endfacet
  facet normal 0.740951 -0.671559 0
    outer loop
      vertex 16.5424 -13.576 22
      vertex 15.1321 -15.1321 25
      vertex 15.1321 -15.1321 22
    endloop
  endfacet
  facet normal -0.14673 -0.989177 0
    outer loop
      vertex -4.17493 -20.9888 22
      vertex -2.09757 -21.297 25
      vertex -4.17493 -20.9888 25
    endloop
  endfacet
  facet normal -0.14673 -0.989177 -0
    outer loop
      vertex -2.09757 -21.297 25
      vertex -4.17493 -20.9888 22
      vertex -2.09757 -21.297 22
    endloop
  endfacet
  facet normal -0.671559 -0.740951 0
    outer loop
      vertex -15.1321 -15.1321 22
      vertex -13.576 -16.5424 25
      vertex -15.1321 -15.1321 25
    endloop
  endfacet
  facet normal -0.671559 -0.740951 -0
    outer loop
      vertex -13.576 -16.5424 25
      vertex -15.1321 -15.1321 22
      vertex -13.576 -16.5424 22
    endloop
  endfacet
  facet normal -0.989177 -0.14673 0
    outer loop
      vertex -20.9888 -4.17493 22
      vertex -21.297 -2.09757 25
      vertex -21.297 -2.09757 22
    endloop
  endfacet
  facet normal -0.989177 -0.14673 0
    outer loop
      vertex -21.297 -2.09757 25
      vertex -20.9888 -4.17493 22
      vertex -20.9888 -4.17493 25
    endloop
  endfacet
  facet normal 0.970031 0.24298 0
    outer loop
      vertex 20.9888 4.17493 25
      vertex 20.4785 6.21209 22
      vertex 20.4785 6.21209 25
    endloop
  endfacet
  facet normal 0.970031 0.24298 0
    outer loop
      vertex 20.4785 6.21209 22
      vertex 20.9888 4.17493 25
      vertex 20.9888 4.17493 22
    endloop
  endfacet
  facet normal 0.803208 0.595699 0
    outer loop
      vertex 17.7934 11.8892 25
      vertex 16.5424 13.576 22
      vertex 16.5424 13.576 25
    endloop
  endfacet
  facet normal 0.803208 0.595699 0
    outer loop
      vertex 16.5424 13.576 22
      vertex 17.7934 11.8892 25
      vertex 17.7934 11.8892 22
    endloop
  endfacet
  facet normal 0.857728 0.514103 0
    outer loop
      vertex 18.8731 10.0879 25
      vertex 17.7934 11.8892 22
      vertex 17.7934 11.8892 25
    endloop
  endfacet
  facet normal 0.857728 0.514103 0
    outer loop
      vertex 17.7934 11.8892 22
      vertex 18.8731 10.0879 25
      vertex 18.8731 10.0879 22
    endloop
  endfacet
  facet normal 0.740951 0.671559 0
    outer loop
      vertex 16.5424 13.576 25
      vertex 15.1321 15.1321 22
      vertex 15.1321 15.1321 25
    endloop
  endfacet
  facet normal 0.740951 0.671559 0
    outer loop
      vertex 15.1321 15.1321 22
      vertex 16.5424 13.576 25
      vertex 16.5424 13.576 22
    endloop
  endfacet
  facet normal 0.595699 0.803208 -0
    outer loop
      vertex 13.576 16.5424 22
      vertex 11.8892 17.7934 25
      vertex 13.576 16.5424 25
    endloop
  endfacet
  facet normal 0.595699 0.803208 0
    outer loop
      vertex 11.8892 17.7934 25
      vertex 13.576 16.5424 22
      vertex 11.8892 17.7934 22
    endloop
  endfacet
  facet normal 0.0490684 0.998795 -0
    outer loop
      vertex 2.09757 21.297 22
      vertex 0 21.4 25
      vertex 2.09757 21.297 25
    endloop
  endfacet
  facet normal 0.0490684 0.998795 0
    outer loop
      vertex 0 21.4 25
      vertex 2.09757 21.297 22
      vertex 0 21.4 22
    endloop
  endfacet
  facet normal 0.514103 0.857728 -0
    outer loop
      vertex 11.8892 17.7934 22
      vertex 10.0879 18.8731 25
      vertex 11.8892 17.7934 25
    endloop
  endfacet
  facet normal 0.514103 0.857728 0
    outer loop
      vertex 10.0879 18.8731 25
      vertex 11.8892 17.7934 22
      vertex 10.0879 18.8731 22
    endloop
  endfacet
  facet normal 0.33689 0.941544 -0
    outer loop
      vertex 8.18942 19.771 22
      vertex 6.21209 20.4785 25
      vertex 8.18942 19.771 25
    endloop
  endfacet
  facet normal 0.33689 0.941544 0
    outer loop
      vertex 6.21209 20.4785 25
      vertex 8.18942 19.771 22
      vertex 6.21209 20.4785 22
    endloop
  endfacet
  facet normal 0.24298 0.970031 -0
    outer loop
      vertex 6.21209 20.4785 22
      vertex 4.17493 20.9888 25
      vertex 6.21209 20.4785 25
    endloop
  endfacet
  facet normal 0.24298 0.970031 0
    outer loop
      vertex 4.17493 20.9888 25
      vertex 6.21209 20.4785 22
      vertex 4.17493 20.9888 22
    endloop
  endfacet
  facet normal -0.998795 0.0490684 0
    outer loop
      vertex -21.4 0 22
      vertex -21.297 2.09757 25
      vertex -21.297 2.09757 22
    endloop
  endfacet
  facet normal -0.998795 0.0490684 0
    outer loop
      vertex -21.297 2.09757 25
      vertex -21.4 0 22
      vertex -21.4 0 25
    endloop
  endfacet
  facet normal -0.941544 0.33689 0
    outer loop
      vertex -20.4785 6.21209 22
      vertex -19.771 8.18942 25
      vertex -19.771 8.18942 22
    endloop
  endfacet
  facet normal -0.941544 0.33689 0
    outer loop
      vertex -19.771 8.18942 25
      vertex -20.4785 6.21209 22
      vertex -20.4785 6.21209 25
    endloop
  endfacet
  facet normal -0.970031 0.24298 0
    outer loop
      vertex -20.9888 4.17493 22
      vertex -20.4785 6.21209 25
      vertex -20.4785 6.21209 22
    endloop
  endfacet
  facet normal -0.970031 0.24298 0
    outer loop
      vertex -20.4785 6.21209 25
      vertex -20.9888 4.17493 22
      vertex -20.9888 4.17493 25
    endloop
  endfacet
  facet normal -0.857728 0.514103 0
    outer loop
      vertex -18.8731 10.0879 22
      vertex -17.7934 11.8892 25
      vertex -17.7934 11.8892 22
    endloop
  endfacet
  facet normal -0.857728 0.514103 0
    outer loop
      vertex -17.7934 11.8892 25
      vertex -18.8731 10.0879 22
      vertex -18.8731 10.0879 25
    endloop
  endfacet
  facet normal -0.803208 0.595699 0
    outer loop
      vertex -17.7934 11.8892 22
      vertex -16.5424 13.576 25
      vertex -16.5424 13.576 22
    endloop
  endfacet
  facet normal -0.803208 0.595699 0
    outer loop
      vertex -16.5424 13.576 25
      vertex -17.7934 11.8892 22
      vertex -17.7934 11.8892 25
    endloop
  endfacet
  facet normal -0.24298 0.970031 0
    outer loop
      vertex -4.17493 20.9888 22
      vertex -6.21209 20.4785 25
      vertex -4.17493 20.9888 25
    endloop
  endfacet
  facet normal -0.24298 0.970031 0
    outer loop
      vertex -6.21209 20.4785 25
      vertex -4.17493 20.9888 22
      vertex -6.21209 20.4785 22
    endloop
  endfacet
  facet normal -0.0490684 0.998795 0
    outer loop
      vertex 0 21.4 22
      vertex -2.09757 21.297 25
      vertex 0 21.4 25
    endloop
  endfacet
  facet normal -0.0490684 0.998795 0
    outer loop
      vertex -2.09757 21.297 25
      vertex 0 21.4 22
      vertex -2.09757 21.297 22
    endloop
  endfacet
  facet normal -0.514103 0.857728 0
    outer loop
      vertex -10.0879 18.8731 22
      vertex -11.8892 17.7934 25
      vertex -10.0879 18.8731 25
    endloop
  endfacet
  facet normal -0.514103 0.857728 0
    outer loop
      vertex -11.8892 17.7934 25
      vertex -10.0879 18.8731 22
      vertex -11.8892 17.7934 22
    endloop
  endfacet
  facet normal -0.595699 0.803208 0
    outer loop
      vertex -11.8892 17.7934 22
      vertex -13.576 16.5424 25
      vertex -11.8892 17.7934 25
    endloop
  endfacet
  facet normal -0.595699 0.803208 0
    outer loop
      vertex -13.576 16.5424 25
      vertex -11.8892 17.7934 22
      vertex -13.576 16.5424 22
    endloop
  endfacet
  facet normal -0.427555 0.903989 0
    outer loop
      vertex -8.18942 19.771 22
      vertex -10.0879 18.8731 25
      vertex -8.18942 19.771 25
    endloop
  endfacet
  facet normal -0.427555 0.903989 0
    outer loop
      vertex -10.0879 18.8731 25
      vertex -8.18942 19.771 22
      vertex -10.0879 18.8731 22
    endloop
  endfacet
  facet normal -0.671559 0.740951 0
    outer loop
      vertex -13.576 16.5424 22
      vertex -15.1321 15.1321 25
      vertex -13.576 16.5424 25
    endloop
  endfacet
  facet normal -0.671559 0.740951 0
    outer loop
      vertex -15.1321 15.1321 25
      vertex -13.576 16.5424 22
      vertex -15.1321 15.1321 22
    endloop
  endfacet
  facet normal 0.998795 0.0490684 0
    outer loop
      vertex 21.4 0 25
      vertex 21.297 2.09757 22
      vertex 21.297 2.09757 25
    endloop
  endfacet
  facet normal 0.998795 0.0490684 0
    outer loop
      vertex 21.297 2.09757 22
      vertex 21.4 0 25
      vertex 21.4 0 22
    endloop
  endfacet
  facet normal 0.0490684 -0.998795 0
    outer loop
      vertex 0 -21.4 22
      vertex 2.09757 -21.297 25
      vertex 0 -21.4 25
    endloop
  endfacet
  facet normal 0.0490684 -0.998795 0
    outer loop
      vertex 2.09757 -21.297 25
      vertex 0 -21.4 22
      vertex 2.09757 -21.297 22
    endloop
  endfacet
  facet normal 0.14673 -0.989177 0
    outer loop
      vertex 2.09757 -21.297 22
      vertex 4.17493 -20.9888 25
      vertex 2.09757 -21.297 25
    endloop
  endfacet
  facet normal 0.14673 -0.989177 0
    outer loop
      vertex 4.17493 -20.9888 25
      vertex 2.09757 -21.297 22
      vertex 4.17493 -20.9888 22
    endloop
  endfacet
  facet normal 0.24298 -0.970031 0
    outer loop
      vertex 4.17493 -20.9888 22
      vertex 6.21209 -20.4785 25
      vertex 4.17493 -20.9888 25
    endloop
  endfacet
  facet normal 0.24298 -0.970031 0
    outer loop
      vertex 6.21209 -20.4785 25
      vertex 4.17493 -20.9888 22
      vertex 6.21209 -20.4785 22
    endloop
  endfacet
  facet normal 0.595699 -0.803208 0
    outer loop
      vertex 11.8892 -17.7934 22
      vertex 13.576 -16.5424 25
      vertex 11.8892 -17.7934 25
    endloop
  endfacet
  facet normal 0.595699 -0.803208 0
    outer loop
      vertex 13.576 -16.5424 25
      vertex 11.8892 -17.7934 22
      vertex 13.576 -16.5424 22
    endloop
  endfacet
  facet normal 0.427555 -0.903989 0
    outer loop
      vertex 8.18942 -19.771 22
      vertex 10.0879 -18.8731 25
      vertex 8.18942 -19.771 25
    endloop
  endfacet
  facet normal 0.427555 -0.903989 0
    outer loop
      vertex 10.0879 -18.8731 25
      vertex 8.18942 -19.771 22
      vertex 10.0879 -18.8731 22
    endloop
  endfacet
  facet normal 0.857728 -0.514103 0
    outer loop
      vertex 17.7934 -11.8892 25
      vertex 18.8731 -10.0879 22
      vertex 18.8731 -10.0879 25
    endloop
  endfacet
  facet normal 0.857728 -0.514103 0
    outer loop
      vertex 18.8731 -10.0879 22
      vertex 17.7934 -11.8892 25
      vertex 17.7934 -11.8892 22
    endloop
  endfacet
  facet normal -0.0490684 -0.998795 0
    outer loop
      vertex -2.09757 -21.297 22
      vertex 0 -21.4 25
      vertex -2.09757 -21.297 25
    endloop
  endfacet
  facet normal -0.0490684 -0.998795 -0
    outer loop
      vertex 0 -21.4 25
      vertex -2.09757 -21.297 22
      vertex 0 -21.4 22
    endloop
  endfacet
  facet normal -0.33689 -0.941544 0
    outer loop
      vertex -8.18942 -19.771 22
      vertex -6.21209 -20.4785 25
      vertex -8.18942 -19.771 25
    endloop
  endfacet
  facet normal -0.33689 -0.941544 -0
    outer loop
      vertex -6.21209 -20.4785 25
      vertex -8.18942 -19.771 22
      vertex -6.21209 -20.4785 22
    endloop
  endfacet
  facet normal -0.514103 -0.857728 0
    outer loop
      vertex -11.8892 -17.7934 22
      vertex -10.0879 -18.8731 25
      vertex -11.8892 -17.7934 25
    endloop
  endfacet
  facet normal -0.514103 -0.857728 -0
    outer loop
      vertex -10.0879 -18.8731 25
      vertex -11.8892 -17.7934 22
      vertex -10.0879 -18.8731 22
    endloop
  endfacet
  facet normal -0.970031 -0.24298 0
    outer loop
      vertex -20.4785 -6.21209 22
      vertex -20.9888 -4.17493 25
      vertex -20.9888 -4.17493 22
    endloop
  endfacet
  facet normal -0.970031 -0.24298 0
    outer loop
      vertex -20.9888 -4.17493 25
      vertex -20.4785 -6.21209 22
      vertex -20.4785 -6.21209 25
    endloop
  endfacet
  facet normal -0.998795 -0.0490684 0
    outer loop
      vertex -21.297 -2.09757 22
      vertex -21.4 0 25
      vertex -21.4 0 22
    endloop
  endfacet
  facet normal -0.998795 -0.0490684 0
    outer loop
      vertex -21.4 0 25
      vertex -21.297 -2.09757 22
      vertex -21.297 -2.09757 25
    endloop
  endfacet
  facet normal -0 0 -1
    outer loop
      vertex 22 0 0
      vertex 20.4013 -2.00935 0
      vertex 20.5 0 0
    endloop
  endfacet
  facet normal 0 0 -1
    outer loop
      vertex 20.1061 -3.99935 0
      vertex 22 0 0
      vertex 20.3253 -8.41903 0
    endloop
  endfacet
  facet normal 0 0 -1
    outer loop
      vertex 22 0 0
      vertex 20.1061 -3.99935 0
      vertex 20.4013 -2.00935 0
    endloop
  endfacet
  facet normal 0 0 -1
    outer loop
      vertex 20.3253 -8.41903 0
      vertex 19.6173 -5.95084 0
      vertex 20.1061 -3.99935 0
    endloop
  endfacet
  facet normal 0 0 -1
    outer loop
      vertex 20.3253 -8.41903 0
      vertex 18.9395 -7.84501 0
      vertex 19.6173 -5.95084 0
    endloop
  endfacet
  facet normal -0 0 -1
    outer loop
      vertex 20.3253 -8.41903 0
      vertex 18.0794 -9.66363 0
      vertex 18.9395 -7.84501 0
    endloop
  endfacet
  facet normal 0 0 -1
    outer loop
      vertex 20.3253 -8.41903 0
      vertex 17.0451 -11.3892 0
      vertex 18.0794 -9.66363 0
    endloop
  endfacet
  facet normal 0 0 -1
    outer loop
      vertex 15.5563 -15.5563 0
      vertex 17.0451 -11.3892 0
      vertex 20.3253 -8.41903 0
    endloop
  endfacet
  facet normal 0 0 -1
    outer loop
      vertex 17.0451 -11.3892 0
      vertex 15.5563 -15.5563 0
      vertex 15.8467 -13.0051 0
    endloop
  endfacet
  facet normal 0 0 -1
    outer loop
      vertex 15.5563 -15.5563 0
      vertex 14.4957 -14.4957 0
      vertex 15.8467 -13.0051 0
    endloop
  endfacet
  facet normal -0 0 -1
    outer loop
      vertex 15.5563 -15.5563 0
      vertex 13.0051 -15.8467 0
      vertex 14.4957 -14.4957 0
    endloop
  endfacet
  facet normal 0 0 -1
    outer loop
      vertex 15.5563 -15.5563 0
      vertex 11.3892 -17.0451 0
      vertex 13.0051 -15.8467 0
    endloop
  endfacet
  facet normal 0 0 -1
    outer loop
      vertex 8.41903 -20.3253 0
      vertex 11.3892 -17.0451 0
      vertex 15.5563 -15.5563 0
    endloop
  endfacet
  facet normal 0 0 -1
    outer loop
      vertex 11.3892 -17.0451 0
      vertex 8.41903 -20.3253 0
      vertex 9.66363 -18.0794 0
    endloop
  endfacet
  facet normal 0 0 -1
    outer loop
      vertex 8.41903 -20.3253 0
      vertex 7.84501 -18.9395 0
      vertex 9.66363 -18.0794 0
    endloop
  endfacet
  facet normal 0 0 -1
    outer loop
      vertex 8.41903 -20.3253 0
      vertex 5.95084 -19.6173 0
      vertex 7.84501 -18.9395 0
    endloop
  endfacet
  facet normal 0 0 -1
    outer loop
      vertex 8.41903 -20.3253 0
      vertex 3.99935 -20.1061 0
      vertex 5.95084 -19.6173 0
    endloop
  endfacet
  facet normal 0 0 -1
    outer loop
      vertex 0 -22 0
      vertex 3.99935 -20.1061 0
      vertex 8.41903 -20.3253 0
    endloop
  endfacet
  facet normal 0 0 -1
    outer loop
      vertex 3.99935 -20.1061 0
      vertex 0 -22 0
      vertex 2.00935 -20.4013 0
    endloop
  endfacet
  facet normal 0 0 -1
    outer loop
      vertex 0 -22 0
      vertex 0 -20.5 0
      vertex 2.00935 -20.4013 0
    endloop
  endfacet
  facet normal 0 0 -1
    outer loop
      vertex 0 -22 0
      vertex -2.00935 -20.4013 0
      vertex 0 -20.5 0
    endloop
  endfacet
  facet normal 0 0 -1
    outer loop
      vertex 0 -22 0
      vertex -3.99935 -20.1061 0
      vertex -2.00935 -20.4013 0
    endloop
  endfacet
  facet normal 0 0 -1
    outer loop
      vertex -8.41903 -20.3253 0
      vertex -3.99935 -20.1061 0
      vertex 0 -22 0
    endloop
  endfacet
  facet normal -0 0 -1
    outer loop
      vertex -3.99935 -20.1061 0
      vertex -8.41903 -20.3253 0
      vertex -5.95084 -19.6173 0
    endloop
  endfacet
  facet normal -0 0 -1
    outer loop
      vertex -5.95084 -19.6173 0
      vertex -8.41903 -20.3253 0
      vertex -7.84501 -18.9395 0
    endloop
  endfacet
  facet normal 0 0 -1
    outer loop
      vertex -8.41903 -20.3253 0
      vertex -9.66363 -18.0794 0
      vertex -7.84501 -18.9395 0
    endloop
  endfacet
  facet normal 0 0 -1
    outer loop
      vertex -8.41903 -20.3253 0
      vertex -11.3892 -17.0451 0
      vertex -9.66363 -18.0794 0
    endloop
  endfacet
  facet normal 0 0 -1
    outer loop
      vertex -15.5563 -15.5563 0
      vertex -11.3892 -17.0451 0
      vertex -8.41903 -20.3253 0
    endloop
  endfacet
  facet normal 0 0 -1
    outer loop
      vertex -11.3892 -17.0451 0
      vertex -15.5563 -15.5563 0
      vertex -13.0051 -15.8467 0
    endloop
  endfacet
  facet normal 0 0 -1
    outer loop
      vertex -13.0051 -15.8467 0
      vertex -15.5563 -15.5563 0
      vertex -14.4957 -14.4957 0
    endloop
  endfacet
  facet normal 0 0 -1
    outer loop
      vertex -15.5563 -15.5563 0
      vertex -15.8467 -13.0051 0
      vertex -14.4957 -14.4957 0
    endloop
  endfacet
  facet normal 0 0 -1
    outer loop
      vertex -15.5563 -15.5563 0
      vertex -17.0451 -11.3892 0
      vertex -15.8467 -13.0051 0
    endloop
  endfacet
  facet normal 0 0 -1
    outer loop
      vertex -20.3253 -8.41903 0
      vertex -17.0451 -11.3892 0
      vertex -15.5563 -15.5563 0
    endloop
  endfacet
  facet normal 0 0 -1
    outer loop
      vertex -17.0451 -11.3892 0
      vertex -20.3253 -8.41903 0
      vertex -18.0794 -9.66363 0
    endloop
  endfacet
  facet normal 0 0 -1
    outer loop
      vertex -18.0794 -9.66363 0
      vertex -20.3253 -8.41903 0
      vertex -18.9395 -7.84501 0
    endloop
  endfacet
  facet normal 0 0 -1
    outer loop
      vertex -20.3253 -8.41903 0
      vertex -19.6173 -5.95084 0
      vertex -18.9395 -7.84501 0
    endloop
  endfacet
  facet normal 0 0 -1
    outer loop
      vertex -20.3253 -8.41903 0
      vertex -20.1061 -3.99935 0
      vertex -19.6173 -5.95084 0
    endloop
  endfacet
  facet normal 0 0 -1
    outer loop
      vertex -22 0 0
      vertex -20.1061 -3.99935 0
      vertex -20.3253 -8.41903 0
    endloop
  endfacet
  facet normal 0 0 -1
    outer loop
      vertex -20.1061 -3.99935 0
      vertex -22 0 0
      vertex -20.4013 -2.00935 0
    endloop
  endfacet
  facet normal 0 0 -1
    outer loop
      vertex -20.4013 -2.00935 0
      vertex -22 0 0
      vertex -20.5 0 0
    endloop
  endfacet
  facet normal 0 0 -1
    outer loop
      vertex 20.4013 2.00935 0
      vertex 22 0 0
      vertex 20.5 0 0
    endloop
  endfacet
  facet normal 0 0 -1
    outer loop
      vertex 20.1061 3.99935 0
      vertex 22 0 0
      vertex 20.4013 2.00935 0
    endloop
  endfacet
  facet normal 0 0 -1
    outer loop
      vertex 22 0 0
      vertex 20.1061 3.99935 0
      vertex 20.3253 8.41903 0
    endloop
  endfacet
  facet normal 0 0 -1
    outer loop
      vertex 19.6173 5.95084 0
      vertex 20.3253 8.41903 0
      vertex 20.1061 3.99935 0
    endloop
  endfacet
  facet normal 0 0 -1
    outer loop
      vertex 18.9395 7.84501 0
      vertex 20.3253 8.41903 0
      vertex 19.6173 5.95084 0
    endloop
  endfacet
  facet normal 0 0 -1
    outer loop
      vertex 18.0794 9.66363 0
      vertex 20.3253 8.41903 0
      vertex 18.9395 7.84501 0
    endloop
  endfacet
  facet normal 0 0 -1
    outer loop
      vertex 17.0451 11.3892 0
      vertex 20.3253 8.41903 0
      vertex 18.0794 9.66363 0
    endloop
  endfacet
  facet normal 0 0 -1
    outer loop
      vertex 15.5563 15.5563 0
      vertex 17.0451 11.3892 0
      vertex 15.8467 13.0051 0
    endloop
  endfacet
  facet normal 0 0 -1
    outer loop
      vertex 17.0451 11.3892 0
      vertex 15.5563 15.5563 0
      vertex 20.3253 8.41903 0
    endloop
  endfacet
  facet normal 0 0 -1
    outer loop
      vertex 14.4957 14.4957 0
      vertex 15.5563 15.5563 0
      vertex 15.8467 13.0051 0
    endloop
  endfacet
  facet normal 0 0 -1
    outer loop
      vertex 13.0051 15.8467 0
      vertex 15.5563 15.5563 0
      vertex 14.4957 14.4957 0
    endloop
  endfacet
  facet normal 0 0 -1
    outer loop
      vertex 11.3892 17.0451 0
      vertex 15.5563 15.5563 0
      vertex 13.0051 15.8467 0
    endloop
  endfacet
  facet normal 0 0 -1
    outer loop
      vertex 8.41903 20.3253 0
      vertex 11.3892 17.0451 0
      vertex 9.66363 18.0794 0
    endloop
  endfacet
  facet normal 0 0 -1
    outer loop
      vertex 11.3892 17.0451 0
      vertex 8.41903 20.3253 0
      vertex 15.5563 15.5563 0
    endloop
  endfacet
  facet normal 0 0 -1
    outer loop
      vertex 7.84501 18.9395 0
      vertex 8.41903 20.3253 0
      vertex 9.66363 18.0794 0
    endloop
  endfacet
  facet normal 0 0 -1
    outer loop
      vertex 5.95084 19.6173 0
      vertex 8.41903 20.3253 0
      vertex 7.84501 18.9395 0
    endloop
  endfacet
  facet normal 0 0 -1
    outer loop
      vertex 3.99935 20.1061 0
      vertex 8.41903 20.3253 0
      vertex 5.95084 19.6173 0
    endloop
  endfacet
  facet normal 0 0 -1
    outer loop
      vertex 0 22 0
      vertex 3.99935 20.1061 0
      vertex 2.00935 20.4013 0
    endloop
  endfacet
  facet normal 0 0 -1
    outer loop
      vertex 0 22 0
      vertex 2.00935 20.4013 0
      vertex 0 20.5 0
    endloop
  endfacet
  facet normal 0 0 -1
    outer loop
      vertex 3.99935 20.1061 0
      vertex 0 22 0
      vertex 8.41903 20.3253 0
    endloop
  endfacet
  facet normal 0 0 -1
    outer loop
      vertex -2.00935 20.4013 0
      vertex 0 22 0
      vertex 0 20.5 0
    endloop
  endfacet
  facet normal 0 0 -1
    outer loop
      vertex -3.99935 20.1061 0
      vertex 0 22 0
      vertex -2.00935 20.4013 0
    endloop
  endfacet
  facet normal 0 0 -1
    outer loop
      vertex -8.41903 20.3253 0
      vertex -3.99935 20.1061 0
      vertex -5.95084 19.6173 0
    endloop
  endfacet
  facet normal 0 0 -1
    outer loop
      vertex -8.41903 20.3253 0
      vertex -5.95084 19.6173 0
      vertex -7.84501 18.9395 0
    endloop
  endfacet
  facet normal 0 0 -1
    outer loop
      vertex -3.99935 20.1061 0
      vertex -8.41903 20.3253 0
      vertex 0 22 0
    endloop
  endfacet
  facet normal 0 0 -1
    outer loop
      vertex -9.66363 18.0794 0
      vertex -8.41903 20.3253 0
      vertex -7.84501 18.9395 0
    endloop
  endfacet
  facet normal 0 0 -1
    outer loop
      vertex -11.3892 17.0451 0
      vertex -8.41903 20.3253 0
      vertex -9.66363 18.0794 0
    endloop
  endfacet
  facet normal 0 0 -1
    outer loop
      vertex -15.5563 15.5563 0
      vertex -11.3892 17.0451 0
      vertex -13.0051 15.8467 0
    endloop
  endfacet
  facet normal 0 0 -1
    outer loop
      vertex -15.5563 15.5563 0
      vertex -13.0051 15.8467 0
      vertex -14.4957 14.4957 0
    endloop
  endfacet
  facet normal -0 0 -1
    outer loop
      vertex -11.3892 17.0451 0
      vertex -15.5563 15.5563 0
      vertex -8.41903 20.3253 0
    endloop
  endfacet
  facet normal 0 0 -1
    outer loop
      vertex -15.8467 13.0051 0
      vertex -15.5563 15.5563 0
      vertex -14.4957 14.4957 0
    endloop
  endfacet
  facet normal 0 0 -1
    outer loop
      vertex -17.0451 11.3892 0
      vertex -15.5563 15.5563 0
      vertex -15.8467 13.0051 0
    endloop
  endfacet
  facet normal 0 0 -1
    outer loop
      vertex -20.3253 8.41903 0
      vertex -17.0451 11.3892 0
      vertex -18.0794 9.66363 0
    endloop
  endfacet
  facet normal 0 0 -1
    outer loop
      vertex -20.3253 8.41903 0
      vertex -18.0794 9.66363 0
      vertex -18.9395 7.84501 0
    endloop
  endfacet
  facet normal -0 0 -1
    outer loop
      vertex -17.0451 11.3892 0
      vertex -20.3253 8.41903 0
      vertex -15.5563 15.5563 0
    endloop
  endfacet
  facet normal 0 0 -1
    outer loop
      vertex -19.6173 5.95084 0
      vertex -20.3253 8.41903 0
      vertex -18.9395 7.84501 0
    endloop
  endfacet
  facet normal 0 0 -1
    outer loop
      vertex -20.1061 3.99935 0
      vertex -20.3253 8.41903 0
      vertex -19.6173 5.95084 0
    endloop
  endfacet
  facet normal 0 0 -1
    outer loop
      vertex -22 0 0
      vertex -20.1061 3.99935 0
      vertex -20.4013 2.00935 0
    endloop
  endfacet
  facet normal 0 0 -1
    outer loop
      vertex -22 0 0
      vertex -20.4013 2.00935 0
      vertex -20.5 0 0
    endloop
  endfacet
  facet normal -0 0 -1
    outer loop
      vertex -20.1061 3.99935 0
      vertex -22 0 0
      vertex -20.3253 8.41903 0
    endloop
  endfacet
  facet normal -0.803208 -0.595699 0
    outer loop
      vertex -16.5424 -13.576 22
      vertex -17.7934 -11.8892 25
      vertex -17.7934 -11.8892 22
    endloop
  endfacet
  facet normal -0.803208 -0.595699 0
    outer loop
      vertex -17.7934 -11.8892 25
      vertex -16.5424 -13.576 22
      vertex -16.5424 -13.576 25
    endloop
  endfacet
  facet normal -0.903989 -0.427555 0
    outer loop
      vertex -18.8731 -10.0879 22
      vertex -19.771 -8.18942 25
      vertex -19.771 -8.18942 22
    endloop
  endfacet
  facet normal -0.903989 -0.427555 0
    outer loop
      vertex -19.771 -8.18942 25
      vertex -18.8731 -10.0879 22
      vertex -18.8731 -10.0879 25
    endloop
  endfacet
  facet normal -0.740951 -0.671559 0
    outer loop
      vertex -15.1321 -15.1321 22
      vertex -16.5424 -13.576 25
      vertex -16.5424 -13.576 22
    endloop
  endfacet
  facet normal -0.740951 -0.671559 0
    outer loop
      vertex -16.5424 -13.576 25
      vertex -15.1321 -15.1321 22
      vertex -15.1321 -15.1321 25
    endloop
  endfacet
  facet normal 0 0 1
    outer loop
      vertex 20.5 0 25
      vertex 21.4 0 25
      vertex 21.297 2.09757 25
    endloop
  endfacet
  facet normal 0 0 1
    outer loop
      vertex 20.4013 2.00935 25
      vertex 21.297 2.09757 25
      vertex 20.9888 4.17493 25
    endloop
  endfacet
  facet normal 0 0 1
    outer loop
      vertex 21.4 0 25
      vertex 20.5 0 25
      vertex 21.297 -2.09757 25
    endloop
  endfacet
  facet normal -0 0 1
    outer loop
      vertex 20.4013 -2.00935 25
      vertex 21.297 -2.09757 25
      vertex 20.5 0 25
    endloop
  endfacet
  facet normal 0 0 1
    outer loop
      vertex 20.1061 3.99935 25
      vertex 20.9888 4.17493 25
      vertex 20.4785 6.21209 25
    endloop
  endfacet
  facet normal 0 0 1
    outer loop
      vertex 21.297 2.09757 25
      vertex 20.4013 2.00935 25
      vertex 20.5 0 25
    endloop
  endfacet
  facet normal 0 0 1
    outer loop
      vertex 20.9888 4.17493 25
      vertex 20.1061 3.99935 25
      vertex 20.4013 2.00935 25
    endloop
  endfacet
  facet normal 0 0 1
    outer loop
      vertex 19.6173 5.95084 25
      vertex 20.4785 6.21209 25
      vertex 19.771 8.18942 25
    endloop
  endfacet
  facet normal 0 0 1
    outer loop
      vertex 20.4785 6.21209 25
      vertex 19.6173 5.95084 25
      vertex 20.1061 3.99935 25
    endloop
  endfacet
  facet normal 0 0 1
    outer loop
      vertex 19.771 8.18942 25
      vertex 18.9395 7.84501 25
      vertex 19.6173 5.95084 25
    endloop
  endfacet
  facet normal 0 0 1
    outer loop
      vertex 18.8731 10.0879 25
      vertex 18.9395 7.84501 25
      vertex 19.771 8.18942 25
    endloop
  endfacet
  facet normal 0 0 1
    outer loop
      vertex 18.8731 10.0879 25
      vertex 18.0794 9.66363 25
      vertex 18.9395 7.84501 25
    endloop
  endfacet
  facet normal 0 0 1
    outer loop
      vertex 17.7934 11.8892 25
      vertex 18.0794 9.66363 25
      vertex 18.8731 10.0879 25
    endloop
  endfacet
  facet normal 0 0 1
    outer loop
      vertex 17.7934 11.8892 25
      vertex 17.0451 11.3892 25
      vertex 18.0794 9.66363 25
    endloop
  endfacet
  facet normal 0 0 1
    outer loop
      vertex 16.5424 13.576 25
      vertex 17.0451 11.3892 25
      vertex 17.7934 11.8892 25
    endloop
  endfacet
  facet normal 0 0 1
    outer loop
      vertex 16.5424 13.576 25
      vertex 15.8467 13.0051 25
      vertex 17.0451 11.3892 25
    endloop
  endfacet
  facet normal 0 0 1
    outer loop
      vertex 15.1321 15.1321 25
      vertex 15.8467 13.0051 25
      vertex 16.5424 13.576 25
    endloop
  endfacet
  facet normal 0 0 1
    outer loop
      vertex 15.1321 15.1321 25
      vertex 14.4957 14.4957 25
      vertex 15.8467 13.0051 25
    endloop
  endfacet
  facet normal 0 0 1
    outer loop
      vertex 13.576 16.5424 25
      vertex 14.4957 14.4957 25
      vertex 15.1321 15.1321 25
    endloop
  endfacet
  facet normal 0 0 1
    outer loop
      vertex 13.576 16.5424 25
      vertex 13.0051 15.8467 25
      vertex 14.4957 14.4957 25
    endloop
  endfacet
  facet normal 0 0 1
    outer loop
      vertex 11.8892 17.7934 25
      vertex 13.0051 15.8467 25
      vertex 13.576 16.5424 25
    endloop
  endfacet
  facet normal 0 0 1
    outer loop
      vertex 11.8892 17.7934 25
      vertex 11.3892 17.0451 25
      vertex 13.0051 15.8467 25
    endloop
  endfacet
  facet normal 0 0 1
    outer loop
      vertex 10.0879 18.8731 25
      vertex 11.3892 17.0451 25
      vertex 11.8892 17.7934 25
    endloop
  endfacet
  facet normal 0 0 1
    outer loop
      vertex 10.0879 18.8731 25
      vertex 9.66363 18.0794 25
      vertex 11.3892 17.0451 25
    endloop
  endfacet
  facet normal 0 0 1
    outer loop
      vertex 8.18942 19.771 25
      vertex 9.66363 18.0794 25
      vertex 10.0879 18.8731 25
    endloop
  endfacet
  facet normal 0 0 1
    outer loop
      vertex 8.18942 19.771 25
      vertex 7.84501 18.9395 25
      vertex 9.66363 18.0794 25
    endloop
  endfacet
  facet normal 0 0 1
    outer loop
      vertex 6.21209 20.4785 25
      vertex 7.84501 18.9395 25
      vertex 8.18942 19.771 25
    endloop
  endfacet
  facet normal 0 0 1
    outer loop
      vertex 6.21209 20.4785 25
      vertex 5.95084 19.6173 25
      vertex 7.84501 18.9395 25
    endloop
  endfacet
  facet normal 0 0 1
    outer loop
      vertex 4.17493 20.9888 25
      vertex 5.95084 19.6173 25
      vertex 6.21209 20.4785 25
    endloop
  endfacet
  facet normal 0 0 1
    outer loop
      vertex 4.17493 20.9888 25
      vertex 3.99935 20.1061 25
      vertex 5.95084 19.6173 25
    endloop
  endfacet
  facet normal 0 0 1
    outer loop
      vertex 2.09757 21.297 25
      vertex 3.99935 20.1061 25
      vertex 4.17493 20.9888 25
    endloop
  endfacet
  facet normal 0 0 1
    outer loop
      vertex 2.09757 21.297 25
      vertex 2.00935 20.4013 25
      vertex 3.99935 20.1061 25
    endloop
  endfacet
  facet normal 0 0 1
    outer loop
      vertex 0 21.4 25
      vertex 2.00935 20.4013 25
      vertex 2.09757 21.297 25
    endloop
  endfacet
  facet normal 0 0 1
    outer loop
      vertex 0 21.4 25
      vertex 0 20.5 25
      vertex 2.00935 20.4013 25
    endloop
  endfacet
  facet normal 0 0 1
    outer loop
      vertex 0 21.4 25
      vertex -2.00935 20.4013 25
      vertex 0 20.5 25
    endloop
  endfacet
  facet normal -0 0 1
    outer loop
      vertex -2.09757 21.297 25
      vertex -2.00935 20.4013 25
      vertex 0 21.4 25
    endloop
  endfacet
  facet normal 0 0 1
    outer loop
      vertex -2.09757 21.297 25
      vertex -3.99935 20.1061 25
      vertex -2.00935 20.4013 25
    endloop
  endfacet
  facet normal -0 0 1
    outer loop
      vertex -4.17493 20.9888 25
      vertex -3.99935 20.1061 25
      vertex -2.09757 21.297 25
    endloop
  endfacet
  facet normal 0 0 1
    outer loop
      vertex -4.17493 20.9888 25
      vertex -5.95084 19.6173 25
      vertex -3.99935 20.1061 25
    endloop
  endfacet
  facet normal -0 0 1
    outer loop
      vertex -6.21209 20.4785 25
      vertex -5.95084 19.6173 25
      vertex -4.17493 20.9888 25
    endloop
  endfacet
  facet normal 0 0 1
    outer loop
      vertex -6.21209 20.4785 25
      vertex -7.84501 18.9395 25
      vertex -5.95084 19.6173 25
    endloop
  endfacet
  facet normal -0 0 1
    outer loop
      vertex -8.18942 19.771 25
      vertex -7.84501 18.9395 25
      vertex -6.21209 20.4785 25
    endloop
  endfacet
  facet normal 0 0 1
    outer loop
      vertex -8.18942 19.771 25
      vertex -9.66363 18.0794 25
      vertex -7.84501 18.9395 25
    endloop
  endfacet
  facet normal -0 0 1
    outer loop
      vertex -10.0879 18.8731 25
      vertex -9.66363 18.0794 25
      vertex -8.18942 19.771 25
    endloop
  endfacet
  facet normal 0 0 1
    outer loop
      vertex -10.0879 18.8731 25
      vertex -11.3892 17.0451 25
      vertex -9.66363 18.0794 25
    endloop
  endfacet
  facet normal -0 0 1
    outer loop
      vertex -11.8892 17.7934 25
      vertex -11.3892 17.0451 25
      vertex -10.0879 18.8731 25
    endloop
  endfacet
  facet normal 0 0 1
    outer loop
      vertex -11.8892 17.7934 25
      vertex -13.0051 15.8467 25
      vertex -11.3892 17.0451 25
    endloop
  endfacet
  facet normal -0 0 1
    outer loop
      vertex -13.576 16.5424 25
      vertex -13.0051 15.8467 25
      vertex -11.8892 17.7934 25
    endloop
  endfacet
  facet normal 0 0 1
    outer loop
      vertex -13.576 16.5424 25
      vertex -14.4957 14.4957 25
      vertex -13.0051 15.8467 25
    endloop
  endfacet
  facet normal -0 0 1
    outer loop
      vertex -15.1321 15.1321 25
      vertex -14.4957 14.4957 25
      vertex -13.576 16.5424 25
    endloop
  endfacet
  facet normal 0 0 1
    outer loop
      vertex -15.1321 15.1321 25
      vertex -15.8467 13.0051 25
      vertex -14.4957 14.4957 25
    endloop
  endfacet
  facet normal -0 0 1
    outer loop
      vertex -16.5424 13.576 25
      vertex -15.8467 13.0051 25
      vertex -15.1321 15.1321 25
    endloop
  endfacet
  facet normal 0 0 1
    outer loop
      vertex -16.5424 13.576 25
      vertex -17.0451 11.3892 25
      vertex -15.8467 13.0051 25
    endloop
  endfacet
  facet normal -0 0 1
    outer loop
      vertex -17.7934 11.8892 25
      vertex -17.0451 11.3892 25
      vertex -16.5424 13.576 25
    endloop
  endfacet
  facet normal 0 0 1
    outer loop
      vertex -17.7934 11.8892 25
      vertex -18.0794 9.66363 25
      vertex -17.0451 11.3892 25
    endloop
  endfacet
  facet normal -0 0 1
    outer loop
      vertex -18.8731 10.0879 25
      vertex -18.0794 9.66363 25
      vertex -17.7934 11.8892 25
    endloop
  endfacet
  facet normal 0 0 1
    outer loop
      vertex -18.8731 10.0879 25
      vertex -18.9395 7.84501 25
      vertex -18.0794 9.66363 25
    endloop
  endfacet
  facet normal -0 0 1
    outer loop
      vertex -19.771 8.18942 25
      vertex -18.9395 7.84501 25
      vertex -18.8731 10.0879 25
    endloop
  endfacet
  facet normal 0 0 1
    outer loop
      vertex -18.9395 7.84501 25
      vertex -19.771 8.18942 25
      vertex -19.6173 5.95084 25
    endloop
  endfacet
  facet normal -0 0 1
    outer loop
      vertex -20.4785 6.21209 25
      vertex -19.6173 5.95084 25
      vertex -19.771 8.18942 25
    endloop
  endfacet
  facet normal 0 0 1
    outer loop
      vertex -19.6173 5.95084 25
      vertex -20.4785 6.21209 25
      vertex -20.1061 3.99935 25
    endloop
  endfacet
  facet normal -0 0 1
    outer loop
      vertex -20.9888 4.17493 25
      vertex -20.1061 3.99935 25
      vertex -20.4785 6.21209 25
    endloop
  endfacet
  facet normal 0 0 1
    outer loop
      vertex -20.1061 3.99935 25
      vertex -20.9888 4.17493 25
      vertex -20.4013 2.00935 25
    endloop
  endfacet
  facet normal -0 0 1
    outer loop
      vertex -21.297 2.09757 25
      vertex -20.4013 2.00935 25
      vertex -20.9888 4.17493 25
    endloop
  endfacet
  facet normal 0 0 1
    outer loop
      vertex 21.297 -2.09757 25
      vertex 20.4013 -2.00935 25
      vertex 20.9888 -4.17493 25
    endloop
  endfacet
  facet normal -0 0 1
    outer loop
      vertex 20.1061 -3.99935 25
      vertex 20.9888 -4.17493 25
      vertex 20.4013 -2.00935 25
    endloop
  endfacet
  facet normal 0 0 1
    outer loop
      vertex 20.9888 -4.17493 25
      vertex 20.1061 -3.99935 25
      vertex 20.4785 -6.21209 25
    endloop
  endfacet
  facet normal -0 0 1
    outer loop
      vertex 19.6173 -5.95084 25
      vertex 20.4785 -6.21209 25
      vertex 20.1061 -3.99935 25
    endloop
  endfacet
  facet normal 0 0 1
    outer loop
      vertex 20.4785 -6.21209 25
      vertex 19.6173 -5.95084 25
      vertex 19.771 -8.18942 25
    endloop
  endfacet
  facet normal -0 0 1
    outer loop
      vertex 18.9395 -7.84501 25
      vertex 19.771 -8.18942 25
      vertex 19.6173 -5.95084 25
    endloop
  endfacet
  facet normal 0 0 1
    outer loop
      vertex 18.9395 -7.84501 25
      vertex 18.8731 -10.0879 25
      vertex 19.771 -8.18942 25
    endloop
  endfacet
  facet normal -0 0 1
    outer loop
      vertex 18.0794 -9.66363 25
      vertex 18.8731 -10.0879 25
      vertex 18.9395 -7.84501 25
    endloop
  endfacet
  facet normal 0 0 1
    outer loop
      vertex 18.0794 -9.66363 25
      vertex 17.7934 -11.8892 25
      vertex 18.8731 -10.0879 25
    endloop
  endfacet
  facet normal -0 0 1
    outer loop
      vertex 17.0451 -11.3892 25
      vertex 17.7934 -11.8892 25
      vertex 18.0794 -9.66363 25
    endloop
  endfacet
  facet normal 0 0 1
    outer loop
      vertex 17.0451 -11.3892 25
      vertex 16.5424 -13.576 25
      vertex 17.7934 -11.8892 25
    endloop
  endfacet
  facet normal -0 0 1
    outer loop
      vertex 15.8467 -13.0051 25
      vertex 16.5424 -13.576 25
      vertex 17.0451 -11.3892 25
    endloop
  endfacet
  facet normal 0 0 1
    outer loop
      vertex 15.8467 -13.0051 25
      vertex 15.1321 -15.1321 25
      vertex 16.5424 -13.576 25
    endloop
  endfacet
  facet normal -0 0 1
    outer loop
      vertex 14.4957 -14.4957 25
      vertex 15.1321 -15.1321 25
      vertex 15.8467 -13.0051 25
    endloop
  endfacet
  facet normal 0 0 1
    outer loop
      vertex 14.4957 -14.4957 25
      vertex 13.576 -16.5424 25
      vertex 15.1321 -15.1321 25
    endloop
  endfacet
  facet normal -0 0 1
    outer loop
      vertex 13.0051 -15.8467 25
      vertex 13.576 -16.5424 25
      vertex 14.4957 -14.4957 25
    endloop
  endfacet
  facet normal 0 0 1
    outer loop
      vertex 13.0051 -15.8467 25
      vertex 11.8892 -17.7934 25
      vertex 13.576 -16.5424 25
    endloop
  endfacet
  facet normal -0 0 1
    outer loop
      vertex 11.3892 -17.0451 25
      vertex 11.8892 -17.7934 25
      vertex 13.0051 -15.8467 25
    endloop
  endfacet
  facet normal 0 0 1
    outer loop
      vertex 11.3892 -17.0451 25
      vertex 10.0879 -18.8731 25
      vertex 11.8892 -17.7934 25
    endloop
  endfacet
  facet normal -0 0 1
    outer loop
      vertex 9.66363 -18.0794 25
      vertex 10.0879 -18.8731 25
      vertex 11.3892 -17.0451 25
    endloop
  endfacet
  facet normal 0 0 1
    outer loop
      vertex 9.66363 -18.0794 25
      vertex 8.18942 -19.771 25
      vertex 10.0879 -18.8731 25
    endloop
  endfacet
  facet normal -0 0 1
    outer loop
      vertex 7.84501 -18.9395 25
      vertex 8.18942 -19.771 25
      vertex 9.66363 -18.0794 25
    endloop
  endfacet
  facet normal 0 0 1
    outer loop
      vertex 7.84501 -18.9395 25
      vertex 6.21209 -20.4785 25
      vertex 8.18942 -19.771 25
    endloop
  endfacet
  facet normal -0 0 1
    outer loop
      vertex 5.95084 -19.6173 25
      vertex 6.21209 -20.4785 25
      vertex 7.84501 -18.9395 25
    endloop
  endfacet
  facet normal 0 0 1
    outer loop
      vertex 5.95084 -19.6173 25
      vertex 4.17493 -20.9888 25
      vertex 6.21209 -20.4785 25
    endloop
  endfacet
  facet normal -0 0 1
    outer loop
      vertex 3.99935 -20.1061 25
      vertex 4.17493 -20.9888 25
      vertex 5.95084 -19.6173 25
    endloop
  endfacet
  facet normal 0 0 1
    outer loop
      vertex 3.99935 -20.1061 25
      vertex 2.09757 -21.297 25
      vertex 4.17493 -20.9888 25
    endloop
  endfacet
  facet normal -0 0 1
    outer loop
      vertex 2.00935 -20.4013 25
      vertex 2.09757 -21.297 25
      vertex 3.99935 -20.1061 25
    endloop
  endfacet
  facet normal -0 0 1
    outer loop
      vertex 0 -20.5 25
      vertex 2.09757 -21.297 25
      vertex 2.00935 -20.4013 25
    endloop
  endfacet
  facet normal 0 0 1
    outer loop
      vertex 0 -20.5 25
      vertex 0 -21.4 25
      vertex 2.09757 -21.297 25
    endloop
  endfacet
  facet normal 0 0 1
    outer loop
      vertex -2.00935 -20.4013 25
      vertex 0 -21.4 25
      vertex 0 -20.5 25
    endloop
  endfacet
  facet normal 0 0 1
    outer loop
      vertex -2.00935 -20.4013 25
      vertex -2.09757 -21.297 25
      vertex 0 -21.4 25
    endloop
  endfacet
  facet normal 0 0 1
    outer loop
      vertex -3.99935 -20.1061 25
      vertex -2.09757 -21.297 25
      vertex -2.00935 -20.4013 25
    endloop
  endfacet
  facet normal 0 0 1
    outer loop
      vertex -3.99935 -20.1061 25
      vertex -4.17493 -20.9888 25
      vertex -2.09757 -21.297 25
    endloop
  endfacet
  facet normal 0 0 1
    outer loop
      vertex -5.95084 -19.6173 25
      vertex -4.17493 -20.9888 25
      vertex -3.99935 -20.1061 25
    endloop
  endfacet
  facet normal 0 0 1
    outer loop
      vertex -5.95084 -19.6173 25
      vertex -6.21209 -20.4785 25
      vertex -4.17493 -20.9888 25
    endloop
  endfacet
  facet normal 0 0 1
    outer loop
      vertex -7.84501 -18.9395 25
      vertex -6.21209 -20.4785 25
      vertex -5.95084 -19.6173 25
    endloop
  endfacet
  facet normal 0 0 1
    outer loop
      vertex -7.84501 -18.9395 25
      vertex -8.18942 -19.771 25
      vertex -6.21209 -20.4785 25
    endloop
  endfacet
  facet normal 0 0 1
    outer loop
      vertex -9.66363 -18.0794 25
      vertex -8.18942 -19.771 25
      vertex -7.84501 -18.9395 25
    endloop
  endfacet
  facet normal 0 0 1
    outer loop
      vertex -9.66363 -18.0794 25
      vertex -10.0879 -18.8731 25
      vertex -8.18942 -19.771 25
    endloop
  endfacet
  facet normal 0 0 1
    outer loop
      vertex -11.3892 -17.0451 25
      vertex -10.0879 -18.8731 25
      vertex -9.66363 -18.0794 25
    endloop
  endfacet
  facet normal 0 0 1
    outer loop
      vertex -11.3892 -17.0451 25
      vertex -11.8892 -17.7934 25
      vertex -10.0879 -18.8731 25
    endloop
  endfacet
  facet normal 0 0 1
    outer loop
      vertex -13.0051 -15.8467 25
      vertex -11.8892 -17.7934 25
      vertex -11.3892 -17.0451 25
    endloop
  endfacet
  facet normal 0 0 1
    outer loop
      vertex -13.0051 -15.8467 25
      vertex -13.576 -16.5424 25
      vertex -11.8892 -17.7934 25
    endloop
  endfacet
  facet normal 0 0 1
    outer loop
      vertex -14.4957 -14.4957 25
      vertex -13.576 -16.5424 25
      vertex -13.0051 -15.8467 25
    endloop
  endfacet
  facet normal 0 0 1
    outer loop
      vertex -14.4957 -14.4957 25
      vertex -15.1321 -15.1321 25
      vertex -13.576 -16.5424 25
    endloop
  endfacet
  facet normal 0 0 1
    outer loop
      vertex -15.8467 -13.0051 25
      vertex -15.1321 -15.1321 25
      vertex -14.4957 -14.4957 25
    endloop
  endfacet
  facet normal 0 0 1
    outer loop
      vertex -15.8467 -13.0051 25
      vertex -16.5424 -13.576 25
      vertex -15.1321 -15.1321 25
    endloop
  endfacet
  facet normal 0 0 1
    outer loop
      vertex -17.0451 -11.3892 25
      vertex -16.5424 -13.576 25
      vertex -15.8467 -13.0051 25
    endloop
  endfacet
  facet normal 0 0 1
    outer loop
      vertex -17.0451 -11.3892 25
      vertex -17.7934 -11.8892 25
      vertex -16.5424 -13.576 25
    endloop
  endfacet
  facet normal 0 0 1
    outer loop
      vertex -18.0794 -9.66363 25
      vertex -17.7934 -11.8892 25
      vertex -17.0451 -11.3892 25
    endloop
  endfacet
  facet normal 0 0 1
    outer loop
      vertex -18.0794 -9.66363 25
      vertex -18.8731 -10.0879 25
      vertex -17.7934 -11.8892 25
    endloop
  endfacet
  facet normal 0 0 1
    outer loop
      vertex -18.9395 -7.84501 25
      vertex -18.8731 -10.0879 25
      vertex -18.0794 -9.66363 25
    endloop
  endfacet
  facet normal 0 0 1
    outer loop
      vertex -19.771 -8.18942 25
      vertex -18.9395 -7.84501 25
      vertex -19.6173 -5.95084 25
    endloop
  endfacet
  facet normal 0 0 1
    outer loop
      vertex -18.9395 -7.84501 25
      vertex -19.771 -8.18942 25
      vertex -18.8731 -10.0879 25
    endloop
  endfacet
  facet normal 0 0 1
    outer loop
      vertex -20.4785 -6.21209 25
      vertex -19.6173 -5.95084 25
      vertex -20.1061 -3.99935 25
    endloop
  endfacet
  facet normal 0 0 1
    outer loop
      vertex -20.9888 -4.17493 25
      vertex -20.1061 -3.99935 25
      vertex -20.4013 -2.00935 25
    endloop
  endfacet
  facet normal 0 0 1
    outer loop
      vertex -19.6173 -5.95084 25
      vertex -20.4785 -6.21209 25
      vertex -19.771 -8.18942 25
    endloop
  endfacet
  facet normal 0 0 1
    outer loop
      vertex -21.297 -2.09757 25
      vertex -20.4013 -2.00935 25
      vertex -20.5 0 25
    endloop
  endfacet
  facet normal 0 0 1
    outer loop
      vertex -20.4013 2.00935 25
      vertex -21.297 2.09757 25
      vertex -20.5 0 25
    endloop
  endfacet
  facet normal 0 0 1
    outer loop
      vertex -20.1061 -3.99935 25
      vertex -20.9888 -4.17493 25
      vertex -20.4785 -6.21209 25
    endloop
  endfacet
  facet normal 0 0 1
    outer loop
      vertex -21.4 0 25
      vertex -20.5 0 25
      vertex -21.297 2.09757 25
    endloop
  endfacet
  facet normal 0 0 1
    outer loop
      vertex -20.4013 -2.00935 25
      vertex -21.297 -2.09757 25
      vertex -20.9888 -4.17493 25
    endloop
  endfacet
  facet normal 0 0 1
    outer loop
      vertex -20.5 0 25
      vertex -21.4 0 25
      vertex -21.297 -2.09757 25
    endloop
  endfacet
  facet normal 0.998795 -0.0490684 0
    outer loop
      vertex 21.297 -2.09757 25
      vertex 21.4 0 22
      vertex 21.4 0 25
    endloop
  endfacet
  facet normal 0.998795 -0.0490684 0
    outer loop
      vertex 21.4 0 22
      vertex 21.297 -2.09757 25
      vertex 21.297 -2.09757 22
    endloop
  endfacet
  facet normal 0.970031 -0.24298 0
    outer loop
      vertex 20.4785 -6.21209 25
      vertex 20.9888 -4.17493 22
      vertex 20.9888 -4.17493 25
    endloop
  endfacet
  facet normal 0.970031 -0.24298 0
    outer loop
      vertex 20.9888 -4.17493 22
      vertex 20.4785 -6.21209 25
      vertex 20.4785 -6.21209 22
    endloop
  endfacet
  facet normal 0.941544 -0.33689 0
    outer loop
      vertex 19.771 -8.18942 25
      vertex 20.4785 -6.21209 22
      vertex 20.4785 -6.21209 25
    endloop
  endfacet
  facet normal 0.941544 -0.33689 0
    outer loop
      vertex 20.4785 -6.21209 22
      vertex 19.771 -8.18942 25
      vertex 19.771 -8.18942 22
    endloop
  endfacet
  facet normal 0.33689 -0.941544 0
    outer loop
      vertex 6.21209 -20.4785 22
      vertex 8.18942 -19.771 25
      vertex 6.21209 -20.4785 25
    endloop
  endfacet
  facet normal 0.33689 -0.941544 0
    outer loop
      vertex 8.18942 -19.771 25
      vertex 6.21209 -20.4785 22
      vertex 8.18942 -19.771 22
    endloop
  endfacet
  facet normal 0.671559 -0.740951 0
    outer loop
      vertex 13.576 -16.5424 22
      vertex 15.1321 -15.1321 25
      vertex 13.576 -16.5424 25
    endloop
  endfacet
  facet normal 0.671559 -0.740951 0
    outer loop
      vertex 15.1321 -15.1321 25
      vertex 13.576 -16.5424 22
      vertex 15.1321 -15.1321 22
    endloop
  endfacet
  facet normal 0.514103 -0.857728 0
    outer loop
      vertex 10.0879 -18.8731 22
      vertex 11.8892 -17.7934 25
      vertex 10.0879 -18.8731 25
    endloop
  endfacet
  facet normal 0.514103 -0.857728 0
    outer loop
      vertex 11.8892 -17.7934 25
      vertex 10.0879 -18.8731 22
      vertex 11.8892 -17.7934 22
    endloop
  endfacet
  facet normal 0.803208 -0.595699 0
    outer loop
      vertex 16.5424 -13.576 25
      vertex 17.7934 -11.8892 22
      vertex 17.7934 -11.8892 25
    endloop
  endfacet
  facet normal 0.803208 -0.595699 0
    outer loop
      vertex 17.7934 -11.8892 22
      vertex 16.5424 -13.576 25
      vertex 16.5424 -13.576 22
    endloop
  endfacet
  facet normal -0.24298 -0.970031 0
    outer loop
      vertex -6.21209 -20.4785 22
      vertex -4.17493 -20.9888 25
      vertex -6.21209 -20.4785 25
    endloop
  endfacet
  facet normal -0.24298 -0.970031 -0
    outer loop
      vertex -4.17493 -20.9888 25
      vertex -6.21209 -20.4785 22
      vertex -4.17493 -20.9888 22
    endloop
  endfacet
  facet normal -0.595699 -0.803208 0
    outer loop
      vertex -13.576 -16.5424 22
      vertex -11.8892 -17.7934 25
      vertex -13.576 -16.5424 25
    endloop
  endfacet
  facet normal -0.595699 -0.803208 -0
    outer loop
      vertex -11.8892 -17.7934 25
      vertex -13.576 -16.5424 22
      vertex -11.8892 -17.7934 22
    endloop
  endfacet
  facet normal -0.941544 -0.33689 0
    outer loop
      vertex -19.771 -8.18942 22
      vertex -20.4785 -6.21209 25
      vertex -20.4785 -6.21209 22
    endloop
  endfacet
  facet normal -0.941544 -0.33689 0
    outer loop
      vertex -20.4785 -6.21209 25
      vertex -19.771 -8.18942 22
      vertex -19.771 -8.18942 25
    endloop
  endfacet
  facet normal -0.857728 -0.514103 0
    outer loop
      vertex -17.7934 -11.8892 22
      vertex -18.8731 -10.0879 25
      vertex -18.8731 -10.0879 22
    endloop
  endfacet
  facet normal -0.857728 -0.514103 0
    outer loop
      vertex -18.8731 -10.0879 25
      vertex -17.7934 -11.8892 22
      vertex -17.7934 -11.8892 25
    endloop
  endfacet
  facet normal 0.980785 0.195091 0
    outer loop
      vertex 22 0 22
      vertex 20.3253 8.41903 0
      vertex 20.3253 8.41903 22
    endloop
  endfacet
  facet normal 0.980785 0.195091 0
    outer loop
      vertex 20.3253 8.41903 0
      vertex 22 0 22
      vertex 22 0 0
    endloop
  endfacet
  facet normal -0.980785 0.195091 0
    outer loop
      vertex -22 0 0
      vertex -20.3253 8.41903 22
      vertex -20.3253 8.41903 0
    endloop
  endfacet
  facet normal -0.980785 0.195091 0
    outer loop
      vertex -20.3253 8.41903 22
      vertex -22 0 0
      vertex -22 0 22
    endloop
  endfacet
  facet normal 0.195091 0.980785 -0
    outer loop
      vertex 8.41903 20.3253 0
      vertex 0 22 22
      vertex 8.41903 20.3253 22
    endloop
  endfacet
  facet normal 0.195091 0.980785 0
    outer loop
      vertex 0 22 22
      vertex 8.41903 20.3253 0
      vertex 0 22 0
    endloop
  endfacet
  facet normal 0.83147 0.55557 0
    outer loop
      vertex 20.3253 8.41903 22
      vertex 15.5563 15.5563 0
      vertex 15.5563 15.5563 22
    endloop
  endfacet
  facet normal 0.83147 0.55557 0
    outer loop
      vertex 15.5563 15.5563 0
      vertex 20.3253 8.41903 22
      vertex 20.3253 8.41903 0
    endloop
  endfacet
  facet normal 0.195091 -0.980785 0
    outer loop
      vertex 0 -22 0
      vertex 8.41903 -20.3253 22
      vertex 0 -22 22
    endloop
  endfacet
  facet normal 0.195091 -0.980785 0
    outer loop
      vertex 8.41903 -20.3253 22
      vertex 0 -22 0
      vertex 8.41903 -20.3253 0
    endloop
  endfacet
  facet normal -0.195091 -0.980785 0
    outer loop
      vertex -8.41903 -20.3253 0
      vertex 0 -22 22
      vertex -8.41903 -20.3253 22
    endloop
  endfacet
  facet normal -0.195091 -0.980785 -0
    outer loop
      vertex 0 -22 22
      vertex -8.41903 -20.3253 0
      vertex 0 -22 0
    endloop
  endfacet
  facet normal 0.55557 0.83147 -0
    outer loop
      vertex 15.5563 15.5563 0
      vertex 8.41903 20.3253 22
      vertex 15.5563 15.5563 22
    endloop
  endfacet
  facet normal 0.55557 0.83147 0
    outer loop
      vertex 8.41903 20.3253 22
      vertex 15.5563 15.5563 0
      vertex 8.41903 20.3253 0
    endloop
  endfacet
  facet normal -0.195091 0.980785 0
    outer loop
      vertex 0 22 0
      vertex -8.41903 20.3253 22
      vertex 0 22 22
    endloop
  endfacet
  facet normal -0.195091 0.980785 0
    outer loop
      vertex -8.41903 20.3253 22
      vertex 0 22 0
      vertex -8.41903 20.3253 0
    endloop
  endfacet
  facet normal -0.55557 0.83147 0
    outer loop
      vertex -8.41903 20.3253 0
      vertex -15.5563 15.5563 22
      vertex -8.41903 20.3253 22
    endloop
  endfacet
  facet normal -0.55557 0.83147 0
    outer loop
      vertex -15.5563 15.5563 22
      vertex -8.41903 20.3253 0
      vertex -15.5563 15.5563 0
    endloop
  endfacet
  facet normal -0.980785 -0.195091 0
    outer loop
      vertex -20.3253 -8.41903 0
      vertex -22 0 22
      vertex -22 0 0
    endloop
  endfacet
  facet normal -0.980785 -0.195091 0
    outer loop
      vertex -22 0 22
      vertex -20.3253 -8.41903 0
      vertex -20.3253 -8.41903 22
    endloop
  endfacet
  facet normal -0.55557 -0.83147 0
    outer loop
      vertex -15.5563 -15.5563 0
      vertex -8.41903 -20.3253 22
      vertex -15.5563 -15.5563 22
    endloop
  endfacet
  facet normal -0.55557 -0.83147 -0
    outer loop
      vertex -8.41903 -20.3253 22
      vertex -15.5563 -15.5563 0
      vertex -8.41903 -20.3253 0
    endloop
  endfacet
  facet normal 0 0 1
    outer loop
      vertex 22 0 22
      vertex 21.297 2.09757 22
      vertex 21.4 0 22
    endloop
  endfacet
  facet normal 0 0 1
    outer loop
      vertex 22 0 22
      vertex 20.9888 4.17493 22
      vertex 21.297 2.09757 22
    endloop
  endfacet
  facet normal 0 0 1
    outer loop
      vertex 20.3253 8.41903 22
      vertex 20.9888 4.17493 22
      vertex 22 0 22
    endloop
  endfacet
  facet normal 0 0 1
    outer loop
      vertex 20.3253 8.41903 22
      vertex 20.4785 6.21209 22
      vertex 20.9888 4.17493 22
    endloop
  endfacet
  facet normal 0 0 1
    outer loop
      vertex 20.3253 8.41903 22
      vertex 19.771 8.18942 22
      vertex 20.4785 6.21209 22
    endloop
  endfacet
  facet normal 0 0 1
    outer loop
      vertex 20.3253 8.41903 22
      vertex 18.8731 10.0879 22
      vertex 19.771 8.18942 22
    endloop
  endfacet
  facet normal 0 0 1
    outer loop
      vertex 20.3253 8.41903 22
      vertex 17.7934 11.8892 22
      vertex 18.8731 10.0879 22
    endloop
  endfacet
  facet normal 0 0 1
    outer loop
      vertex 15.5563 15.5563 22
      vertex 17.7934 11.8892 22
      vertex 20.3253 8.41903 22
    endloop
  endfacet
  facet normal 0 0 1
    outer loop
      vertex 15.5563 15.5563 22
      vertex 16.5424 13.576 22
      vertex 17.7934 11.8892 22
    endloop
  endfacet
  facet normal 0 0 1
    outer loop
      vertex 15.5563 15.5563 22
      vertex 15.1321 15.1321 22
      vertex 16.5424 13.576 22
    endloop
  endfacet
  facet normal 0 0 1
    outer loop
      vertex 15.5563 15.5563 22
      vertex 13.576 16.5424 22
      vertex 15.1321 15.1321 22
    endloop
  endfacet
  facet normal 0 0 1
    outer loop
      vertex 15.5563 15.5563 22
      vertex 11.8892 17.7934 22
      vertex 13.576 16.5424 22
    endloop
  endfacet
  facet normal 0 0 1
    outer loop
      vertex 8.41903 20.3253 22
      vertex 11.8892 17.7934 22
      vertex 15.5563 15.5563 22
    endloop
  endfacet
  facet normal 0 0 1
    outer loop
      vertex 8.41903 20.3253 22
      vertex 10.0879 18.8731 22
      vertex 11.8892 17.7934 22
    endloop
  endfacet
  facet normal 0 0 1
    outer loop
      vertex 8.41903 20.3253 22
      vertex 8.18942 19.771 22
      vertex 10.0879 18.8731 22
    endloop
  endfacet
  facet normal 0 0 1
    outer loop
      vertex 8.41903 20.3253 22
      vertex 6.21209 20.4785 22
      vertex 8.18942 19.771 22
    endloop
  endfacet
  facet normal 0 0 1
    outer loop
      vertex 8.41903 20.3253 22
      vertex 4.17493 20.9888 22
      vertex 6.21209 20.4785 22
    endloop
  endfacet
  facet normal 0 0 1
    outer loop
      vertex 0 22 22
      vertex 4.17493 20.9888 22
      vertex 8.41903 20.3253 22
    endloop
  endfacet
  facet normal 0 0 1
    outer loop
      vertex 0 22 22
      vertex 2.09757 21.297 22
      vertex 4.17493 20.9888 22
    endloop
  endfacet
  facet normal 0 0 1
    outer loop
      vertex 0 22 22
      vertex 0 21.4 22
      vertex 2.09757 21.297 22
    endloop
  endfacet
  facet normal 0 0 1
    outer loop
      vertex 0 22 22
      vertex -2.09757 21.297 22
      vertex 0 21.4 22
    endloop
  endfacet
  facet normal 0 0 1
    outer loop
      vertex 0 22 22
      vertex -4.17493 20.9888 22
      vertex -2.09757 21.297 22
    endloop
  endfacet
  facet normal 0 0 1
    outer loop
      vertex -8.41903 20.3253 22
      vertex -4.17493 20.9888 22
      vertex 0 22 22
    endloop
  endfacet
  facet normal 0 0 1
    outer loop
      vertex -8.41903 20.3253 22
      vertex -6.21209 20.4785 22
      vertex -4.17493 20.9888 22
    endloop
  endfacet
  facet normal -0 0 1
    outer loop
      vertex -8.41903 20.3253 22
      vertex -8.18942 19.771 22
      vertex -6.21209 20.4785 22
    endloop
  endfacet
  facet normal 0 0 1
    outer loop
      vertex -8.41903 20.3253 22
      vertex -10.0879 18.8731 22
      vertex -8.18942 19.771 22
    endloop
  endfacet
  facet normal 0 0 1
    outer loop
      vertex -8.41903 20.3253 22
      vertex -11.8892 17.7934 22
      vertex -10.0879 18.8731 22
    endloop
  endfacet
  facet normal 0 0 1
    outer loop
      vertex -15.5563 15.5563 22
      vertex -11.8892 17.7934 22
      vertex -8.41903 20.3253 22
    endloop
  endfacet
  facet normal 0 0 1
    outer loop
      vertex -15.5563 15.5563 22
      vertex -13.576 16.5424 22
      vertex -11.8892 17.7934 22
    endloop
  endfacet
  facet normal -0 0 1
    outer loop
      vertex -15.5563 15.5563 22
      vertex -15.1321 15.1321 22
      vertex -13.576 16.5424 22
    endloop
  endfacet
  facet normal 0 0 1
    outer loop
      vertex -15.5563 15.5563 22
      vertex -16.5424 13.576 22
      vertex -15.1321 15.1321 22
    endloop
  endfacet
  facet normal 0 0 1
    outer loop
      vertex -15.5563 15.5563 22
      vertex -17.7934 11.8892 22
      vertex -16.5424 13.576 22
    endloop
  endfacet
  facet normal 0 0 1
    outer loop
      vertex -20.3253 8.41903 22
      vertex -17.7934 11.8892 22
      vertex -15.5563 15.5563 22
    endloop
  endfacet
  facet normal 0 0 1
    outer loop
      vertex -20.3253 8.41903 22
      vertex -18.8731 10.0879 22
      vertex -17.7934 11.8892 22
    endloop
  endfacet
  facet normal -0 0 1
    outer loop
      vertex -20.3253 8.41903 22
      vertex -19.771 8.18942 22
      vertex -18.8731 10.0879 22
    endloop
  endfacet
  facet normal 0 0 1
    outer loop
      vertex -20.3253 8.41903 22
      vertex -20.4785 6.21209 22
      vertex -19.771 8.18942 22
    endloop
  endfacet
  facet normal 0 0 1
    outer loop
      vertex -20.3253 8.41903 22
      vertex -20.9888 4.17493 22
      vertex -20.4785 6.21209 22
    endloop
  endfacet
  facet normal 0 0 1
    outer loop
      vertex -21.297 2.09757 22
      vertex -22 0 22
      vertex -21.4 0 22
    endloop
  endfacet
  facet normal 0 0 1
    outer loop
      vertex -20.9888 4.17493 22
      vertex -22 0 22
      vertex -21.297 2.09757 22
    endloop
  endfacet
  facet normal 0 0 1
    outer loop
      vertex -22 0 22
      vertex -20.9888 4.17493 22
      vertex -20.3253 8.41903 22
    endloop
  endfacet
  facet normal 0 0 1
    outer loop
      vertex 21.297 -2.09757 22
      vertex 22 0 22
      vertex 21.4 0 22
    endloop
  endfacet
  facet normal 0 0 1
    outer loop
      vertex 20.9888 -4.17493 22
      vertex 22 0 22
      vertex 21.297 -2.09757 22
    endloop
  endfacet
  facet normal -0 0 1
    outer loop
      vertex 20.9888 -4.17493 22
      vertex 20.3253 -8.41903 22
      vertex 22 0 22
    endloop
  endfacet
  facet normal -0 0 1
    outer loop
      vertex 20.4785 -6.21209 22
      vertex 20.3253 -8.41903 22
      vertex 20.9888 -4.17493 22
    endloop
  endfacet
  facet normal -0 0 1
    outer loop
      vertex 19.771 -8.18942 22
      vertex 20.3253 -8.41903 22
      vertex 20.4785 -6.21209 22
    endloop
  endfacet
  facet normal 0 0 1
    outer loop
      vertex 18.8731 -10.0879 22
      vertex 20.3253 -8.41903 22
      vertex 19.771 -8.18942 22
    endloop
  endfacet
  facet normal 0 0 1
    outer loop
      vertex 17.7934 -11.8892 22
      vertex 20.3253 -8.41903 22
      vertex 18.8731 -10.0879 22
    endloop
  endfacet
  facet normal -0 0 1
    outer loop
      vertex 17.7934 -11.8892 22
      vertex 15.5563 -15.5563 22
      vertex 20.3253 -8.41903 22
    endloop
  endfacet
  facet normal -0 0 1
    outer loop
      vertex 16.5424 -13.576 22
      vertex 15.5563 -15.5563 22
      vertex 17.7934 -11.8892 22
    endloop
  endfacet
  facet normal -0 0 1
    outer loop
      vertex 15.1321 -15.1321 22
      vertex 15.5563 -15.5563 22
      vertex 16.5424 -13.576 22
    endloop
  endfacet
  facet normal 0 0 1
    outer loop
      vertex 13.576 -16.5424 22
      vertex 15.5563 -15.5563 22
      vertex 15.1321 -15.1321 22
    endloop
  endfacet
  facet normal 0 0 1
    outer loop
      vertex 11.8892 -17.7934 22
      vertex 15.5563 -15.5563 22
      vertex 13.576 -16.5424 22
    endloop
  endfacet
  facet normal -0 0 1
    outer loop
      vertex 11.8892 -17.7934 22
      vertex 8.41903 -20.3253 22
      vertex 15.5563 -15.5563 22
    endloop
  endfacet
  facet normal -0 0 1
    outer loop
      vertex 10.0879 -18.8731 22
      vertex 8.41903 -20.3253 22
      vertex 11.8892 -17.7934 22
    endloop
  endfacet
  facet normal -0 0 1
    outer loop
      vertex 8.18942 -19.771 22
      vertex 8.41903 -20.3253 22
      vertex 10.0879 -18.8731 22
    endloop
  endfacet
  facet normal 0 0 1
    outer loop
      vertex 6.21209 -20.4785 22
      vertex 8.41903 -20.3253 22
      vertex 8.18942 -19.771 22
    endloop
  endfacet
  facet normal 0 0 1
    outer loop
      vertex 4.17493 -20.9888 22
      vertex 8.41903 -20.3253 22
      vertex 6.21209 -20.4785 22
    endloop
  endfacet
  facet normal -0 0 1
    outer loop
      vertex 4.17493 -20.9888 22
      vertex 0 -22 22
      vertex 8.41903 -20.3253 22
    endloop
  endfacet
  facet normal -0 0 1
    outer loop
      vertex 2.09757 -21.297 22
      vertex 0 -22 22
      vertex 4.17493 -20.9888 22
    endloop
  endfacet
  facet normal -0 0 1
    outer loop
      vertex 0 -21.4 22
      vertex 0 -22 22
      vertex 2.09757 -21.297 22
    endloop
  endfacet
  facet normal 0 0 1
    outer loop
      vertex -2.09757 -21.297 22
      vertex 0 -22 22
      vertex 0 -21.4 22
    endloop
  endfacet
  facet normal 0 0 1
    outer loop
      vertex -4.17493 -20.9888 22
      vertex 0 -22 22
      vertex -2.09757 -21.297 22
    endloop
  endfacet
  facet normal 0 0 1
    outer loop
      vertex -4.17493 -20.9888 22
      vertex -8.41903 -20.3253 22
      vertex 0 -22 22
    endloop
  endfacet
  facet normal 0 0 1
    outer loop
      vertex -6.21209 -20.4785 22
      vertex -8.41903 -20.3253 22
      vertex -4.17493 -20.9888 22
    endloop
  endfacet
  facet normal 0 0 1
    outer loop
      vertex -8.18942 -19.771 22
      vertex -8.41903 -20.3253 22
      vertex -6.21209 -20.4785 22
    endloop
  endfacet
  facet normal 0 0 1
    outer loop
      vertex -10.0879 -18.8731 22
      vertex -8.41903 -20.3253 22
      vertex -8.18942 -19.771 22
    endloop
  endfacet
  facet normal 0 0 1
    outer loop
      vertex -11.8892 -17.7934 22
      vertex -8.41903 -20.3253 22
      vertex -10.0879 -18.8731 22
    endloop
  endfacet
  facet normal 0 0 1
    outer loop
      vertex -11.8892 -17.7934 22
      vertex -15.5563 -15.5563 22
      vertex -8.41903 -20.3253 22
    endloop
  endfacet
  facet normal 0 0 1
    outer loop
      vertex -13.576 -16.5424 22
      vertex -15.5563 -15.5563 22
      vertex -11.8892 -17.7934 22
    endloop
  endfacet
  facet normal 0 0 1
    outer loop
      vertex -15.1321 -15.1321 22
      vertex -15.5563 -15.5563 22
      vertex -13.576 -16.5424 22
    endloop
  endfacet
  facet normal 0 0 1
    outer loop
      vertex -16.5424 -13.576 22
      vertex -15.5563 -15.5563 22
      vertex -15.1321 -15.1321 22
    endloop
  endfacet
  facet normal 0 0 1
    outer loop
      vertex -17.7934 -11.8892 22
      vertex -15.5563 -15.5563 22
      vertex -16.5424 -13.576 22
    endloop
  endfacet
  facet normal 0 0 1
    outer loop
      vertex -17.7934 -11.8892 22
      vertex -20.3253 -8.41903 22
      vertex -15.5563 -15.5563 22
    endloop
  endfacet
  facet normal 0 0 1
    outer loop
      vertex -18.8731 -10.0879 22
      vertex -20.3253 -8.41903 22
      vertex -17.7934 -11.8892 22
    endloop
  endfacet
  facet normal 0 0 1
    outer loop
      vertex -19.771 -8.18942 22
      vertex -20.3253 -8.41903 22
      vertex -18.8731 -10.0879 22
    endloop
  endfacet
  facet normal 0 0 1
    outer loop
      vertex -20.4785 -6.21209 22
      vertex -20.3253 -8.41903 22
      vertex -19.771 -8.18942 22
    endloop
  endfacet
  facet normal 0 0 1
    outer loop
      vertex -20.9888 -4.17493 22
      vertex -20.3253 -8.41903 22
      vertex -20.4785 -6.21209 22
    endloop
  endfacet
  facet normal 0 0 1
    outer loop
      vertex -20.9888 -4.17493 22
      vertex -22 0 22
      vertex -20.3253 -8.41903 22
    endloop
  endfacet
  facet normal 0 0 1
    outer loop
      vertex -21.297 -2.09757 22
      vertex -22 0 22
      vertex -20.9888 -4.17493 22
    endloop
  endfacet
  facet normal -0 0 1
    outer loop
      vertex -22 0 22
      vertex -21.297 -2.09757 22
      vertex -21.4 0 22
    endloop
  endfacet
  facet normal -0.83147 0.55557 0
    outer loop
      vertex -20.3253 8.41903 0
      vertex -15.5563 15.5563 22
      vertex -15.5563 15.5563 0
    endloop
  endfacet
  facet normal -0.83147 0.55557 0
    outer loop
      vertex -15.5563 15.5563 22
      vertex -20.3253 8.41903 0
      vertex -20.3253 8.41903 22
    endloop
  endfacet
  facet normal 0.83147 -0.55557 0
    outer loop
      vertex 15.5563 -15.5563 22
      vertex 20.3253 -8.41903 0
      vertex 20.3253 -8.41903 22
    endloop
  endfacet
  facet normal 0.83147 -0.55557 0
    outer loop
      vertex 20.3253 -8.41903 0
      vertex 15.5563 -15.5563 22
      vertex 15.5563 -15.5563 0
    endloop
  endfacet
  facet normal 0.55557 -0.83147 0
    outer loop
      vertex 8.41903 -20.3253 0
      vertex 15.5563 -15.5563 22
      vertex 8.41903 -20.3253 22
    endloop
  endfacet
  facet normal 0.55557 -0.83147 0
    outer loop
      vertex 15.5563 -15.5563 22
      vertex 8.41903 -20.3253 0
      vertex 15.5563 -15.5563 0
    endloop
  endfacet
  facet normal 0.980785 -0.195091 0
    outer loop
      vertex 20.3253 -8.41903 22
      vertex 22 0 0
      vertex 22 0 22
    endloop
  endfacet
  facet normal 0.980785 -0.195091 0
    outer loop
      vertex 22 0 0
      vertex 20.3253 -8.41903 22
      vertex 20.3253 -8.41903 0
    endloop
  endfacet
  facet normal -0.83147 -0.55557 0
    outer loop
      vertex -15.5563 -15.5563 0
      vertex -20.3253 -8.41903 22
      vertex -20.3253 -8.41903 0
    endloop
  endfacet
  facet normal -0.83147 -0.55557 0
    outer loop
      vertex -20.3253 -8.41903 22
      vertex -15.5563 -15.5563 0
      vertex -15.5563 -15.5563 22
    endloop
  endfacet
  facet normal -0.998795 -0.0490676 0
    outer loop
      vertex 20.5 0 0
      vertex 20.4013 2.00935 25
      vertex 20.4013 2.00935 0
    endloop
  endfacet
  facet normal -0.998795 -0.0490676 0
    outer loop
      vertex 20.4013 2.00935 25
      vertex 20.5 0 0
      vertex 20.5 0 25
    endloop
  endfacet
  facet normal 0.998795 -0.0490676 0
    outer loop
      vertex -20.5 0 25
      vertex -20.4013 2.00935 0
      vertex -20.4013 2.00935 25
    endloop
  endfacet
  facet normal 0.998795 -0.0490676 0
    outer loop
      vertex -20.4013 2.00935 0
      vertex -20.5 0 25
      vertex -20.5 0 0
    endloop
  endfacet
  facet normal -0.0490676 -0.998795 0
    outer loop
      vertex 0 20.5 0
      vertex 2.00935 20.4013 25
      vertex 0 20.5 25
    endloop
  endfacet
  facet normal -0.0490676 -0.998795 -0
    outer loop
      vertex 2.00935 20.4013 25
      vertex 0 20.5 0
      vertex 2.00935 20.4013 0
    endloop
  endfacet
  facet normal -0.671559 -0.740951 0
    outer loop
      vertex 13.0051 15.8467 0
      vertex 14.4957 14.4957 25
      vertex 13.0051 15.8467 25
    endloop
  endfacet
  facet normal -0.671559 -0.740951 -0
    outer loop
      vertex 14.4957 14.4957 25
      vertex 13.0051 15.8467 0
      vertex 14.4957 14.4957 0
    endloop
  endfacet
  facet normal 0.671559 -0.740951 0
    outer loop
      vertex -14.4957 14.4957 0
      vertex -13.0051 15.8467 25
      vertex -14.4957 14.4957 25
    endloop
  endfacet
  facet normal 0.671559 -0.740951 0
    outer loop
      vertex -13.0051 15.8467 25
      vertex -14.4957 14.4957 0
      vertex -13.0051 15.8467 0
    endloop
  endfacet
  facet normal 0.33689 -0.941544 0
    outer loop
      vertex -7.84501 18.9395 0
      vertex -5.95084 19.6173 25
      vertex -7.84501 18.9395 25
    endloop
  endfacet
  facet normal 0.33689 -0.941544 0
    outer loop
      vertex -5.95084 19.6173 25
      vertex -7.84501 18.9395 0
      vertex -5.95084 19.6173 0
    endloop
  endfacet
  facet normal -0.903989 -0.427555 0
    outer loop
      vertex 18.9395 7.84501 0
      vertex 18.0794 9.66363 25
      vertex 18.0794 9.66363 0
    endloop
  endfacet
  facet normal -0.903989 -0.427555 0
    outer loop
      vertex 18.0794 9.66363 25
      vertex 18.9395 7.84501 0
      vertex 18.9395 7.84501 25
    endloop
  endfacet
  facet normal -0.427555 -0.903989 0
    outer loop
      vertex 7.84501 18.9395 0
      vertex 9.66363 18.0794 25
      vertex 7.84501 18.9395 25
    endloop
  endfacet
  facet normal -0.427555 -0.903989 -0
    outer loop
      vertex 9.66363 18.0794 25
      vertex 7.84501 18.9395 0
      vertex 9.66363 18.0794 0
    endloop
  endfacet
  facet normal -0.5957 -0.803207 0
    outer loop
      vertex 11.3892 17.0451 0
      vertex 13.0051 15.8467 25
      vertex 11.3892 17.0451 25
    endloop
  endfacet
  facet normal -0.5957 -0.803207 -0
    outer loop
      vertex 13.0051 15.8467 25
      vertex 11.3892 17.0451 0
      vertex 13.0051 15.8467 0
    endloop
  endfacet
  facet normal 0.903989 -0.427555 0
    outer loop
      vertex -18.9395 7.84501 25
      vertex -18.0794 9.66363 0
      vertex -18.0794 9.66363 25
    endloop
  endfacet
  facet normal 0.903989 -0.427555 0
    outer loop
      vertex -18.0794 9.66363 0
      vertex -18.9395 7.84501 25
      vertex -18.9395 7.84501 0
    endloop
  endfacet
  facet normal 0.146731 -0.989176 0
    outer loop
      vertex -3.99935 20.1061 0
      vertex -2.00935 20.4013 25
      vertex -3.99935 20.1061 25
    endloop
  endfacet
  facet normal 0.146731 -0.989176 0
    outer loop
      vertex -2.00935 20.4013 25
      vertex -3.99935 20.1061 0
      vertex -2.00935 20.4013 0
    endloop
  endfacet
  facet normal -0.970031 0.242981 0
    outer loop
      vertex 19.6173 -5.95084 0
      vertex 20.1061 -3.99935 25
      vertex 20.1061 -3.99935 0
    endloop
  endfacet
  facet normal -0.970031 0.242981 0
    outer loop
      vertex 20.1061 -3.99935 25
      vertex 19.6173 -5.95084 0
      vertex 19.6173 -5.95084 25
    endloop
  endfacet
  facet normal 0.941544 0.33689 0
    outer loop
      vertex -18.9395 -7.84501 25
      vertex -19.6173 -5.95084 0
      vertex -19.6173 -5.95084 25
    endloop
  endfacet
  facet normal 0.941544 0.33689 0
    outer loop
      vertex -19.6173 -5.95084 0
      vertex -18.9395 -7.84501 25
      vertex -18.9395 -7.84501 0
    endloop
  endfacet
  facet normal -0.970031 -0.242981 0
    outer loop
      vertex 20.1061 3.99935 0
      vertex 19.6173 5.95084 25
      vertex 19.6173 5.95084 0
    endloop
  endfacet
  facet normal -0.970031 -0.242981 0
    outer loop
      vertex 19.6173 5.95084 25
      vertex 20.1061 3.99935 0
      vertex 20.1061 3.99935 25
    endloop
  endfacet
  facet normal -0.989176 -0.146731 0
    outer loop
      vertex 20.4013 2.00935 0
      vertex 20.1061 3.99935 25
      vertex 20.1061 3.99935 0
    endloop
  endfacet
  facet normal -0.989176 -0.146731 0
    outer loop
      vertex 20.1061 3.99935 25
      vertex 20.4013 2.00935 0
      vertex 20.4013 2.00935 25
    endloop
  endfacet
  facet normal -0.941544 -0.33689 0
    outer loop
      vertex 19.6173 5.95084 0
      vertex 18.9395 7.84501 25
      vertex 18.9395 7.84501 0
    endloop
  endfacet
  facet normal -0.941544 -0.33689 0
    outer loop
      vertex 18.9395 7.84501 25
      vertex 19.6173 5.95084 0
      vertex 19.6173 5.95084 25
    endloop
  endfacet
  facet normal -0.803207 -0.5957 0
    outer loop
      vertex 17.0451 11.3892 0
      vertex 15.8467 13.0051 25
      vertex 15.8467 13.0051 0
    endloop
  endfacet
  facet normal -0.803207 -0.5957 0
    outer loop
      vertex 15.8467 13.0051 25
      vertex 17.0451 11.3892 0
      vertex 17.0451 11.3892 25
    endloop
  endfacet
  facet normal -0.740951 -0.671559 0
    outer loop
      vertex 15.8467 13.0051 0
      vertex 14.4957 14.4957 25
      vertex 14.4957 14.4957 0
    endloop
  endfacet
  facet normal -0.740951 -0.671559 0
    outer loop
      vertex 14.4957 14.4957 25
      vertex 15.8467 13.0051 0
      vertex 15.8467 13.0051 25
    endloop
  endfacet
  facet normal -0.857729 -0.514102 0
    outer loop
      vertex 18.0794 9.66363 0
      vertex 17.0451 11.3892 25
      vertex 17.0451 11.3892 0
    endloop
  endfacet
  facet normal -0.857729 -0.514102 0
    outer loop
      vertex 17.0451 11.3892 25
      vertex 18.0794 9.66363 0
      vertex 18.0794 9.66363 25
    endloop
  endfacet
  facet normal -0.242981 -0.970031 0
    outer loop
      vertex 3.99935 20.1061 0
      vertex 5.95084 19.6173 25
      vertex 3.99935 20.1061 25
    endloop
  endfacet
  facet normal -0.242981 -0.970031 -0
    outer loop
      vertex 5.95084 19.6173 25
      vertex 3.99935 20.1061 0
      vertex 5.95084 19.6173 0
    endloop
  endfacet
  facet normal -0.33689 -0.941544 0
    outer loop
      vertex 5.95084 19.6173 0
      vertex 7.84501 18.9395 25
      vertex 5.95084 19.6173 25
    endloop
  endfacet
  facet normal -0.33689 -0.941544 -0
    outer loop
      vertex 7.84501 18.9395 25
      vertex 5.95084 19.6173 0
      vertex 7.84501 18.9395 0
    endloop
  endfacet
  facet normal -0.146731 -0.989176 0
    outer loop
      vertex 2.00935 20.4013 0
      vertex 3.99935 20.1061 25
      vertex 2.00935 20.4013 25
    endloop
  endfacet
  facet normal -0.146731 -0.989176 -0
    outer loop
      vertex 3.99935 20.1061 25
      vertex 2.00935 20.4013 0
      vertex 3.99935 20.1061 0
    endloop
  endfacet
  facet normal -0.514102 -0.857729 0
    outer loop
      vertex 9.66363 18.0794 0
      vertex 11.3892 17.0451 25
      vertex 9.66363 18.0794 25
    endloop
  endfacet
  facet normal -0.514102 -0.857729 -0
    outer loop
      vertex 11.3892 17.0451 25
      vertex 9.66363 18.0794 0
      vertex 11.3892 17.0451 0
    endloop
  endfacet
  facet normal 0.970031 -0.242981 0
    outer loop
      vertex -20.1061 3.99935 25
      vertex -19.6173 5.95084 0
      vertex -19.6173 5.95084 25
    endloop
  endfacet
  facet normal 0.970031 -0.242981 0
    outer loop
      vertex -19.6173 5.95084 0
      vertex -20.1061 3.99935 25
      vertex -20.1061 3.99935 0
    endloop
  endfacet
  facet normal 0.803207 -0.5957 0
    outer loop
      vertex -17.0451 11.3892 25
      vertex -15.8467 13.0051 0
      vertex -15.8467 13.0051 25
    endloop
  endfacet
  facet normal 0.803207 -0.5957 0
    outer loop
      vertex -15.8467 13.0051 0
      vertex -17.0451 11.3892 25
      vertex -17.0451 11.3892 0
    endloop
  endfacet
  facet normal 0.740951 -0.671559 0
    outer loop
      vertex -15.8467 13.0051 25
      vertex -14.4957 14.4957 0
      vertex -14.4957 14.4957 25
    endloop
  endfacet
  facet normal 0.740951 -0.671559 0
    outer loop
      vertex -14.4957 14.4957 0
      vertex -15.8467 13.0051 25
      vertex -15.8467 13.0051 0
    endloop
  endfacet
  facet normal 0.857729 -0.514102 0
    outer loop
      vertex -18.0794 9.66363 25
      vertex -17.0451 11.3892 0
      vertex -17.0451 11.3892 25
    endloop
  endfacet
  facet normal 0.857729 -0.514102 0
    outer loop
      vertex -17.0451 11.3892 0
      vertex -18.0794 9.66363 25
      vertex -18.0794 9.66363 0
    endloop
  endfacet
  facet normal 0.941544 -0.33689 0
    outer loop
      vertex -19.6173 5.95084 25
      vertex -18.9395 7.84501 0
      vertex -18.9395 7.84501 25
    endloop
  endfacet
  facet normal 0.941544 -0.33689 0
    outer loop
      vertex -18.9395 7.84501 0
      vertex -19.6173 5.95084 25
      vertex -19.6173 5.95084 0
    endloop
  endfacet
  facet normal 0.989176 -0.146731 0
    outer loop
      vertex -20.4013 2.00935 25
      vertex -20.1061 3.99935 0
      vertex -20.1061 3.99935 25
    endloop
  endfacet
  facet normal 0.989176 -0.146731 0
    outer loop
      vertex -20.1061 3.99935 0
      vertex -20.4013 2.00935 25
      vertex -20.4013 2.00935 0
    endloop
  endfacet
  facet normal 0.514102 -0.857729 0
    outer loop
      vertex -11.3892 17.0451 0
      vertex -9.66363 18.0794 25
      vertex -11.3892 17.0451 25
    endloop
  endfacet
  facet normal 0.514102 -0.857729 0
    outer loop
      vertex -9.66363 18.0794 25
      vertex -11.3892 17.0451 0
      vertex -9.66363 18.0794 0
    endloop
  endfacet
  facet normal 0.427555 -0.903989 0
    outer loop
      vertex -9.66363 18.0794 0
      vertex -7.84501 18.9395 25
      vertex -9.66363 18.0794 25
    endloop
  endfacet
  facet normal 0.427555 -0.903989 0
    outer loop
      vertex -7.84501 18.9395 25
      vertex -9.66363 18.0794 0
      vertex -7.84501 18.9395 0
    endloop
  endfacet
  facet normal 0.5957 -0.803207 0
    outer loop
      vertex -13.0051 15.8467 0
      vertex -11.3892 17.0451 25
      vertex -13.0051 15.8467 25
    endloop
  endfacet
  facet normal 0.5957 -0.803207 0
    outer loop
      vertex -11.3892 17.0451 25
      vertex -13.0051 15.8467 0
      vertex -11.3892 17.0451 0
    endloop
  endfacet
  facet normal 0.242981 -0.970031 0
    outer loop
      vertex -5.95084 19.6173 0
      vertex -3.99935 20.1061 25
      vertex -5.95084 19.6173 25
    endloop
  endfacet
  facet normal 0.242981 -0.970031 0
    outer loop
      vertex -3.99935 20.1061 25
      vertex -5.95084 19.6173 0
      vertex -3.99935 20.1061 0
    endloop
  endfacet
  facet normal 0.0490676 -0.998795 0
    outer loop
      vertex -2.00935 20.4013 0
      vertex 0 20.5 25
      vertex -2.00935 20.4013 25
    endloop
  endfacet
  facet normal 0.0490676 -0.998795 0
    outer loop
      vertex 0 20.5 25
      vertex -2.00935 20.4013 0
      vertex 0 20.5 0
    endloop
  endfacet
  facet normal -0.0490676 0.998795 0
    outer loop
      vertex 2.00935 -20.4013 0
      vertex 0 -20.5 25
      vertex 2.00935 -20.4013 25
    endloop
  endfacet
  facet normal -0.0490676 0.998795 0
    outer loop
      vertex 0 -20.5 25
      vertex 2.00935 -20.4013 0
      vertex 0 -20.5 0
    endloop
  endfacet
  facet normal -0.242981 0.970031 0
    outer loop
      vertex 5.95084 -19.6173 0
      vertex 3.99935 -20.1061 25
      vertex 5.95084 -19.6173 25
    endloop
  endfacet
  facet normal -0.242981 0.970031 0
    outer loop
      vertex 3.99935 -20.1061 25
      vertex 5.95084 -19.6173 0
      vertex 3.99935 -20.1061 0
    endloop
  endfacet
  facet normal -0.5957 0.803207 0
    outer loop
      vertex 13.0051 -15.8467 0
      vertex 11.3892 -17.0451 25
      vertex 13.0051 -15.8467 25
    endloop
  endfacet
  facet normal -0.5957 0.803207 0
    outer loop
      vertex 11.3892 -17.0451 25
      vertex 13.0051 -15.8467 0
      vertex 11.3892 -17.0451 0
    endloop
  endfacet
  facet normal -0.740951 0.671559 0
    outer loop
      vertex 14.4957 -14.4957 0
      vertex 15.8467 -13.0051 25
      vertex 15.8467 -13.0051 0
    endloop
  endfacet
  facet normal -0.740951 0.671559 0
    outer loop
      vertex 15.8467 -13.0051 25
      vertex 14.4957 -14.4957 0
      vertex 14.4957 -14.4957 25
    endloop
  endfacet
  facet normal -0.427555 0.903989 0
    outer loop
      vertex 9.66363 -18.0794 0
      vertex 7.84501 -18.9395 25
      vertex 9.66363 -18.0794 25
    endloop
  endfacet
  facet normal -0.427555 0.903989 0
    outer loop
      vertex 7.84501 -18.9395 25
      vertex 9.66363 -18.0794 0
      vertex 7.84501 -18.9395 0
    endloop
  endfacet
  facet normal -0.803207 0.5957 0
    outer loop
      vertex 15.8467 -13.0051 0
      vertex 17.0451 -11.3892 25
      vertex 17.0451 -11.3892 0
    endloop
  endfacet
  facet normal -0.803207 0.5957 0
    outer loop
      vertex 17.0451 -11.3892 25
      vertex 15.8467 -13.0051 0
      vertex 15.8467 -13.0051 25
    endloop
  endfacet
  facet normal -0.903989 0.427555 0
    outer loop
      vertex 18.0794 -9.66363 0
      vertex 18.9395 -7.84501 25
      vertex 18.9395 -7.84501 0
    endloop
  endfacet
  facet normal -0.903989 0.427555 0
    outer loop
      vertex 18.9395 -7.84501 25
      vertex 18.0794 -9.66363 0
      vertex 18.0794 -9.66363 25
    endloop
  endfacet
  facet normal 0.671559 0.740951 -0
    outer loop
      vertex -13.0051 -15.8467 0
      vertex -14.4957 -14.4957 25
      vertex -13.0051 -15.8467 25
    endloop
  endfacet
  facet normal 0.671559 0.740951 0
    outer loop
      vertex -14.4957 -14.4957 25
      vertex -13.0051 -15.8467 0
      vertex -14.4957 -14.4957 0
    endloop
  endfacet
  facet normal 0.514102 0.857729 -0
    outer loop
      vertex -9.66363 -18.0794 0
      vertex -11.3892 -17.0451 25
      vertex -9.66363 -18.0794 25
    endloop
  endfacet
  facet normal 0.514102 0.857729 0
    outer loop
      vertex -11.3892 -17.0451 25
      vertex -9.66363 -18.0794 0
      vertex -11.3892 -17.0451 0
    endloop
  endfacet
  facet normal 0.33689 0.941544 -0
    outer loop
      vertex -5.95084 -19.6173 0
      vertex -7.84501 -18.9395 25
      vertex -5.95084 -19.6173 25
    endloop
  endfacet
  facet normal 0.33689 0.941544 0
    outer loop
      vertex -7.84501 -18.9395 25
      vertex -5.95084 -19.6173 0
      vertex -7.84501 -18.9395 0
    endloop
  endfacet
  facet normal 0.146731 0.989176 -0
    outer loop
      vertex -2.00935 -20.4013 0
      vertex -3.99935 -20.1061 25
      vertex -2.00935 -20.4013 25
    endloop
  endfacet
  facet normal 0.146731 0.989176 0
    outer loop
      vertex -3.99935 -20.1061 25
      vertex -2.00935 -20.4013 0
      vertex -3.99935 -20.1061 0
    endloop
  endfacet
  facet normal 0.803207 0.5957 0
    outer loop
      vertex -15.8467 -13.0051 25
      vertex -17.0451 -11.3892 0
      vertex -17.0451 -11.3892 25
    endloop
  endfacet
  facet normal 0.803207 0.5957 0
    outer loop
      vertex -17.0451 -11.3892 0
      vertex -15.8467 -13.0051 25
      vertex -15.8467 -13.0051 0
    endloop
  endfacet
  facet normal 0.903989 0.427555 0
    outer loop
      vertex -18.0794 -9.66363 25
      vertex -18.9395 -7.84501 0
      vertex -18.9395 -7.84501 25
    endloop
  endfacet
  facet normal 0.903989 0.427555 0
    outer loop
      vertex -18.9395 -7.84501 0
      vertex -18.0794 -9.66363 25
      vertex -18.0794 -9.66363 0
    endloop
  endfacet
  facet normal 0.857729 0.514102 0
    outer loop
      vertex -17.0451 -11.3892 25
      vertex -18.0794 -9.66363 0
      vertex -18.0794 -9.66363 25
    endloop
  endfacet
  facet normal 0.857729 0.514102 0
    outer loop
      vertex -18.0794 -9.66363 0
      vertex -17.0451 -11.3892 25
      vertex -17.0451 -11.3892 0
    endloop
  endfacet
  facet normal 0.998795 0.0490676 0
    outer loop
      vertex -20.4013 -2.00935 25
      vertex -20.5 0 0
      vertex -20.5 0 25
    endloop
  endfacet
  facet normal 0.998795 0.0490676 0
    outer loop
      vertex -20.5 0 0
      vertex -20.4013 -2.00935 25
      vertex -20.4013 -2.00935 0
    endloop
  endfacet
  facet normal 0.970031 0.242981 0
    outer loop
      vertex -19.6173 -5.95084 25
      vertex -20.1061 -3.99935 0
      vertex -20.1061 -3.99935 25
    endloop
  endfacet
  facet normal 0.970031 0.242981 0
    outer loop
      vertex -20.1061 -3.99935 0
      vertex -19.6173 -5.95084 25
      vertex -19.6173 -5.95084 0
    endloop
  endfacet
  facet normal -0.146731 0.989176 0
    outer loop
      vertex 3.99935 -20.1061 0
      vertex 2.00935 -20.4013 25
      vertex 3.99935 -20.1061 25
    endloop
  endfacet
  facet normal -0.146731 0.989176 0
    outer loop
      vertex 2.00935 -20.4013 25
      vertex 3.99935 -20.1061 0
      vertex 2.00935 -20.4013 0
    endloop
  endfacet
  facet normal -0.33689 0.941544 0
    outer loop
      vertex 7.84501 -18.9395 0
      vertex 5.95084 -19.6173 25
      vertex 7.84501 -18.9395 25
    endloop
  endfacet
  facet normal -0.33689 0.941544 0
    outer loop
      vertex 5.95084 -19.6173 25
      vertex 7.84501 -18.9395 0
      vertex 5.95084 -19.6173 0
    endloop
  endfacet
  facet normal -0.671559 0.740951 0
    outer loop
      vertex 14.4957 -14.4957 0
      vertex 13.0051 -15.8467 25
      vertex 14.4957 -14.4957 25
    endloop
  endfacet
  facet normal -0.671559 0.740951 0
    outer loop
      vertex 13.0051 -15.8467 25
      vertex 14.4957 -14.4957 0
      vertex 13.0051 -15.8467 0
    endloop
  endfacet
  facet normal -0.514102 0.857729 0
    outer loop
      vertex 11.3892 -17.0451 0
      vertex 9.66363 -18.0794 25
      vertex 11.3892 -17.0451 25
    endloop
  endfacet
  facet normal -0.514102 0.857729 0
    outer loop
      vertex 9.66363 -18.0794 25
      vertex 11.3892 -17.0451 0
      vertex 9.66363 -18.0794 0
    endloop
  endfacet
  facet normal -0.857729 0.514102 0
    outer loop
      vertex 17.0451 -11.3892 0
      vertex 18.0794 -9.66363 25
      vertex 18.0794 -9.66363 0
    endloop
  endfacet
  facet normal -0.857729 0.514102 0
    outer loop
      vertex 18.0794 -9.66363 25
      vertex 17.0451 -11.3892 0
      vertex 17.0451 -11.3892 25
    endloop
  endfacet
  facet normal -0.941544 0.33689 0
    outer loop
      vertex 18.9395 -7.84501 0
      vertex 19.6173 -5.95084 25
      vertex 19.6173 -5.95084 0
    endloop
  endfacet
  facet normal -0.941544 0.33689 0
    outer loop
      vertex 19.6173 -5.95084 25
      vertex 18.9395 -7.84501 0
      vertex 18.9395 -7.84501 25
    endloop
  endfacet
  facet normal -0.989176 0.146731 0
    outer loop
      vertex 20.1061 -3.99935 0
      vertex 20.4013 -2.00935 25
      vertex 20.4013 -2.00935 0
    endloop
  endfacet
  facet normal -0.989176 0.146731 0
    outer loop
      vertex 20.4013 -2.00935 25
      vertex 20.1061 -3.99935 0
      vertex 20.1061 -3.99935 25
    endloop
  endfacet
  facet normal -0.998795 0.0490676 0
    outer loop
      vertex 20.4013 -2.00935 0
      vertex 20.5 0 25
      vertex 20.5 0 0
    endloop
  endfacet
  facet normal -0.998795 0.0490676 0
    outer loop
      vertex 20.5 0 25
      vertex 20.4013 -2.00935 0
      vertex 20.4013 -2.00935 25
    endloop
  endfacet
  facet normal 0.5957 0.803207 -0
    outer loop
      vertex -11.3892 -17.0451 0
      vertex -13.0051 -15.8467 25
      vertex -11.3892 -17.0451 25
    endloop
  endfacet
  facet normal 0.5957 0.803207 0
    outer loop
      vertex -13.0051 -15.8467 25
      vertex -11.3892 -17.0451 0
      vertex -13.0051 -15.8467 0
    endloop
  endfacet
  facet normal 0.427555 0.903989 -0
    outer loop
      vertex -7.84501 -18.9395 0
      vertex -9.66363 -18.0794 25
      vertex -7.84501 -18.9395 25
    endloop
  endfacet
  facet normal 0.427555 0.903989 0
    outer loop
      vertex -9.66363 -18.0794 25
      vertex -7.84501 -18.9395 0
      vertex -9.66363 -18.0794 0
    endloop
  endfacet
  facet normal 0.242981 0.970031 -0
    outer loop
      vertex -3.99935 -20.1061 0
      vertex -5.95084 -19.6173 25
      vertex -3.99935 -20.1061 25
    endloop
  endfacet
  facet normal 0.242981 0.970031 0
    outer loop
      vertex -5.95084 -19.6173 25
      vertex -3.99935 -20.1061 0
      vertex -5.95084 -19.6173 0
    endloop
  endfacet
  facet normal 0.0490676 0.998795 -0
    outer loop
      vertex 0 -20.5 0
      vertex -2.00935 -20.4013 25
      vertex 0 -20.5 25
    endloop
  endfacet
  facet normal 0.0490676 0.998795 0
    outer loop
      vertex -2.00935 -20.4013 25
      vertex 0 -20.5 0
      vertex -2.00935 -20.4013 0
    endloop
  endfacet
  facet normal 0.740951 0.671559 0
    outer loop
      vertex -14.4957 -14.4957 25
      vertex -15.8467 -13.0051 0
      vertex -15.8467 -13.0051 25
    endloop
  endfacet
  facet normal 0.740951 0.671559 0
    outer loop
      vertex -15.8467 -13.0051 0
      vertex -14.4957 -14.4957 25
      vertex -14.4957 -14.4957 0
    endloop
  endfacet
  facet normal 0.989176 0.146731 0
    outer loop
      vertex -20.1061 -3.99935 25
      vertex -20.4013 -2.00935 0
      vertex -20.4013 -2.00935 25
    endloop
  endfacet
  facet normal 0.989176 0.146731 0
    outer loop
      vertex -20.4013 -2.00935 0
      vertex -20.1061 -3.99935 25
      vertex -20.1061 -3.99935 0
    endloop
  endfacet
endsolid OpenSCAD_Model
